<?xml version="1.0" encoding="utf-8"?>
<!-- Generator: Adobe Illustrator 26.0.0, SVG Export Plug-In . SVG Version: 6.00 Build 0)  -->
<svg version="1.1" id="Layer_1" xmlns="http://www.w3.org/2000/svg" xmlns:xlink="http://www.w3.org/1999/xlink" x="0px" y="0px"
	 viewBox="0 0 1104 580.7" style="enable-background:new 0 0 1104 580.7;" xml:space="preserve">
<style type="text/css">
	.st0{fill:#80ED99;}
	.st1{fill:#3F3D56;}
	.st2{opacity:0.1;enable-background:new    ;}
	.st3{fill:#F0F0F0;}
	.st4{fill:#E6E8EC;}
	.st5{fill:#FFFFFF;}
	.st6{fill:#2F2E41;}
</style>
<rect y="9.6" class="st0" width="1104" height="560"/>
<path class="st1" d="M499,133.8v65.7c0,1.3-1,2.3-2.3,2.3h-1.6v342.2c0,19.7-16,35.7-35.7,35.7H245.6c-19.7,0-35.7-16-35.7-35.7
	c0,0,0,0,0,0V213.7h-1.2c-0.9,0-1.6-0.7-1.6-1.6v-37.4c0-0.9,0.7-1.6,1.6-1.6c0,0,0,0,0,0h1.2V159h-1.2c-0.9,0-1.7-0.8-1.7-1.7
	v-36.9c0-0.9,0.8-1.7,1.7-1.7h1.2V99.6h-1.2c-0.8,0-1.5-0.7-1.5-1.5c0,0,0,0,0,0V77.9c0-0.8,0.7-1.5,1.5-1.5h1.2V35.7
	c0-19.7,16-35.7,35.7-35.7h213.8c19.7,0,35.7,16,35.7,35.7v95.8h1.6C497.9,131.5,499,132.5,499,133.8z"/>
<polygon class="st2" points="948.7,9.6 476,334.1 443.8,287.1 848,9.6 "/>
<polygon class="st2" points="1104,9.6 1104,56.6 439,513.1 406.8,466.1 1071.8,9.6 "/>
<polygon class="st2" points="1104,147.9 1104,217.1 590.5,569.6 489.8,569.6 "/>
<rect x="30.2" y="578.7" class="st1" width="1039.8" height="2"/>
<rect x="777.4" y="396.4" transform="matrix(0.5789 -0.8154 0.8154 0.5789 -6.1263 833.0146)" class="st3" width="52" height="52"/>
<path class="st1" d="M809.2,469.6c-6.6,0-12-5.4-12-12s5.4-12,12-12s12,5.4,12,12C821.2,464.2,815.8,469.6,809.2,469.6z
	 M809.2,447.6c-5.5,0-10,4.5-10,10s4.5,10,10,10s10-4.5,10-10C819.2,452.1,814.7,447.6,809.2,447.6z"/>
<path class="st3" d="M570.2,100.6c-6.6,0-12-5.4-12-12s5.4-12,12-12s12,5.4,12,12C582.2,95.2,576.8,100.6,570.2,100.6z M570.2,78.6
	c-5.5,0-10,4.5-10,10s4.5,10,10,10s10-4.5,10-10C580.2,83.1,575.7,78.6,570.2,78.6z"/>
<rect x="137.1" y="506.1" class="st1" width="2" height="74.4"/>
<circle class="st1" cx="138.1" cy="506.1" r="10.5"/>
<path class="st1" d="M138.1,552c0,0-1.5-32.3-32.3-28.6"/>
<path class="st4" d="M328,18.3h34.7c1.4,0,2.5,1.1,2.5,2.5v3c0,1.4-1.1,2.5-2.5,2.5H328c-1.4,0-2.5-1.1-2.5-2.5v-3
	C325.5,19.4,326.6,18.3,328,18.3z"/>
<circle class="st4" cx="375.9" cy="22.4" r="4.6"/>
<path class="st0" d="M478,42.7v504.1c0,12.5-10.1,22.6-22.6,22.6H250.7c-12.5,0-22.6-10.1-22.6-22.6c0,0,0,0,0-0.1V42.7
	c0-12.5,10.1-22.6,22.6-22.6c0,0,0,0,0,0h30.6V24c0,10.3,8.3,18.6,18.6,18.6H404c10.3,0,18.6-8.3,18.6-18.6v-3.9h32.6
	C467.8,20.1,478,30.2,478,42.7C478,42.7,478,42.7,478,42.7z"/>
<rect x="238" y="168.6" class="st1" width="232" height="113"/>
<rect x="238" y="356.6" class="st1" width="232" height="113"/>
<circle class="st5" cx="446" cy="81.6" r="20"/>
<polygon class="st1" points="455,81 446.6,81 446.6,72.6 445.4,72.6 445.4,81 437,81 437,82.3 445.4,82.3 445.4,90.6 446.6,90.6 
	446.6,82.3 455,82.3 "/>
<path class="st5" d="M331.4,246.2c6.1,22.5,26.9,36.4,26.9,36.4s11-22.5,4.9-44.9s-26.9-36.4-26.9-36.4S325.3,223.8,331.4,246.2z"/>
<path class="st0" d="M340.3,241.4c16.7,16.2,18.7,41.2,18.7,41.2s-25-1.4-41.6-17.6s-18.7-41.2-18.7-41.2S323.7,225.2,340.3,241.4z"
	/>
<path class="st5" d="M331.4,434.2c6.1,22.5,26.9,36.4,26.9,36.4s11-22.5,4.9-44.9s-26.9-36.4-26.9-36.4S325.3,411.8,331.4,434.2z"/>
<path class="st0" d="M340.3,429.4c16.7,16.2,18.7,41.2,18.7,41.2s-25-1.4-41.6-17.6s-18.7-41.2-18.7-41.2S323.7,413.2,340.3,429.4z"
	/>
<path class="st5" d="M386.7,434.2c-6.1,22.5-26.9,36.4-26.9,36.4s-11-22.5-4.9-44.9s26.9-36.4,26.9-36.4S392.7,411.8,386.7,434.2z"
	/>
<path class="st0" d="M377.7,429.4c-16.7,16.2-18.7,41.2-18.7,41.2s25-1.4,41.6-17.6s18.7-41.2,18.7-41.2S394.4,413.2,377.7,429.4z"
	/>
<path class="st1" d="M976,120.9h-19.7v-19.7H976V120.9z M957.8,119.4h16.7v-16.7h-16.7V119.4z"/>
<path class="st3" d="M987.6,568l-13.5-14.4l14.4-13.5l13.5,14.4L987.6,568z M976.3,553.6l11.4,12.2l12.2-11.4l-11.4-12.2
	L976.3,553.6z"/>
<circle class="st3" cx="137.3" cy="101.3" r="10.1"/>
<path class="st6" d="M137.3,130.4c-16.1,0-29.1-13-29.1-29.1s13-29.1,29.1-29.1s29.1,13,29.1,29.1l0,0
	C166.4,117.4,153.4,130.4,137.3,130.4z M137.3,74.4c-14.8,0-26.9,12-26.9,26.9c0,14.8,12,26.9,26.9,26.9s26.9-12,26.9-26.9
	c0,0,0,0,0,0C164.2,86.5,152.1,74.4,137.3,74.4z"/>
<rect x="646" y="214.6" class="st3" width="328" height="27"/>
<rect x="687.5" y="277.6" class="st3" width="245" height="10.5"/>
<rect x="687.5" y="294.5" class="st3" width="245" height="10.5"/>
<rect x="687.5" y="311.3" class="st3" width="245" height="10.5"/>
<rect x="687.5" y="328.2" class="st3" width="245" height="10.5"/>
<g>
	<g>
		<path class="st1" d="M519.2,74.4h-9.5V40.8h9.5V74.4z M532.8,61.3h-14.3v-7.9h14.3V61.3z M532.1,40.8h9.5v33.6h-9.5V40.8z"/>
		<path class="st1" d="M556.1,74.9c-2,0-3.8-0.4-5.3-1.1s-2.6-1.7-3.3-2.9c-0.8-1.2-1.1-2.6-1.1-4c0-1.6,0.4-3,1.2-4.2
			c0.8-1.2,2.1-2.1,3.8-2.7s3.9-0.9,6.6-0.9h6.1v4.8h-4.9c-1.5,0-2.5,0.2-3.1,0.7c-0.6,0.4-0.9,1.1-0.9,1.9c0,0.8,0.3,1.4,0.9,1.9
			s1.4,0.7,2.5,0.7c1,0,1.9-0.2,2.8-0.7c0.8-0.5,1.4-1.3,1.8-2.3l1.2,3.4c-0.5,1.8-1.4,3.1-2.8,4.1
			C560.2,74.4,558.4,74.9,556.1,74.9z M563.8,74.4v-4.8l-0.6-1.2v-8.9c0-1.4-0.4-2.6-1.3-3.3c-0.9-0.8-2.3-1.2-4.2-1.2
			c-1.2,0-2.5,0.2-3.8,0.6c-1.3,0.4-2.4,0.9-3.3,1.6l-3-6.1c1.5-1,3.2-1.7,5.3-2.3c2.1-0.5,4.1-0.8,6.2-0.8c4.2,0,7.5,1,9.8,2.9
			c2.3,2,3.5,5,3.5,9.1v14.4H563.8z"/>
		<path class="st1" d="M576.7,74.4v-5.3l14.6-16.9l1.5,3h-15.8v-6.8h23.2v5.4l-14.6,16.8l-1.6-3h16.7v6.8H576.7z"/>
		<path class="st1" d="M616,56.2v-6.8h18.9v6.8H616z M630.3,74.9c-3.3,0-5.9-0.8-7.8-2.5c-1.9-1.6-2.8-4.1-2.8-7.5V42.6h9.1v22.2
			c0,1,0.2,1.7,0.7,2.3c0.5,0.5,1.2,0.8,2,0.8c1.1,0,2-0.3,2.8-0.8l2.3,6.3c-0.8,0.5-1.8,0.9-2.9,1.2
			C632.7,74.7,631.6,74.9,630.3,74.9z"/>
		<path class="st1" d="M651.1,74.9c-2.1,0-4-0.4-5.7-1.2c-1.7-0.8-3-2.1-3.9-3.9c-0.9-1.8-1.4-4-1.4-6.8V48.4h9.1v13.1
			c0,2,0.4,3.5,1.1,4.3c0.8,0.9,1.8,1.3,3.2,1.3c0.9,0,1.7-0.2,2.5-0.6c0.8-0.4,1.3-1.1,1.8-2c0.4-0.9,0.6-2.1,0.6-3.5V48.4h9.1
			v26.1h-8.6v-7.3l1.7,2.1c-0.9,1.9-2.2,3.4-3.9,4.3C654.9,74.4,653.1,74.9,651.1,74.9z"/>
		<path class="st1" d="M695.6,74.9c-2,0-3.8-0.4-5.3-1.1s-2.6-1.7-3.3-2.9c-0.8-1.2-1.1-2.6-1.1-4c0-1.6,0.4-3,1.2-4.2
			c0.8-1.2,2.1-2.1,3.8-2.7s3.9-0.9,6.6-0.9h6.1v4.8h-4.9c-1.5,0-2.5,0.2-3.1,0.7c-0.6,0.4-0.9,1.1-0.9,1.9c0,0.8,0.3,1.4,0.9,1.9
			s1.4,0.7,2.5,0.7c1,0,1.9-0.2,2.8-0.7c0.8-0.5,1.4-1.3,1.8-2.3l1.2,3.4c-0.5,1.8-1.4,3.1-2.8,4.1
			C699.7,74.4,697.8,74.9,695.6,74.9z M703.2,74.4v-4.8l-0.6-1.2v-8.9c0-1.4-0.4-2.6-1.3-3.3c-0.9-0.8-2.3-1.2-4.2-1.2
			c-1.2,0-2.5,0.2-3.8,0.6c-1.3,0.4-2.4,0.9-3.3,1.6l-3-6.1c1.5-1,3.2-1.7,5.3-2.3c2.1-0.5,4.1-0.8,6.2-0.8c4.2,0,7.5,1,9.8,2.9
			c2.3,2,3.5,5,3.5,9.1v14.4H703.2z"/>
		<path class="st1" d="M717.5,83.7V48.4h8.7v4.5l-0.1,8.6l0.5,8.6v13.7H717.5z M733.9,74.9c-2.2,0-4.1-0.5-5.7-1.5
			c-1.6-1-2.8-2.5-3.6-4.4c-0.8-2-1.2-4.5-1.2-7.5c0-3.1,0.4-5.7,1.2-7.7c0.8-2,1.9-3.4,3.5-4.4c1.6-1,3.5-1.5,5.8-1.5
			c2.4,0,4.5,0.6,6.5,1.7c1.9,1.1,3.5,2.7,4.6,4.7c1.1,2,1.7,4.4,1.7,7.2c0,2.7-0.6,5.1-1.7,7.1c-1.1,2-2.7,3.6-4.6,4.7
			C738.4,74.3,736.2,74.9,733.9,74.9z M731.9,67.6c1,0,1.9-0.2,2.8-0.7c0.8-0.5,1.5-1.2,2-2.1c0.5-0.9,0.7-2,0.7-3.3
			c0-1.4-0.2-2.5-0.7-3.4s-1.2-1.6-2-2.1c-0.8-0.5-1.7-0.7-2.8-0.7c-1,0-1.9,0.2-2.8,0.7c-0.8,0.5-1.5,1.2-2,2.1
			c-0.5,0.9-0.7,2.1-0.7,3.4c0,1.3,0.2,2.4,0.7,3.3c0.5,0.9,1.2,1.6,2,2.1C730,67.4,730.9,67.6,731.9,67.6z"/>
		<path class="st1" d="M750.9,74.4V38.8h9.1v35.6H750.9z"/>
		<path class="st1" d="M770.4,45.5c-1.7,0-3-0.5-4.1-1.4c-1-0.9-1.5-2.1-1.5-3.5c0-1.4,0.5-2.5,1.5-3.4c1-0.9,2.4-1.4,4.1-1.4
			c1.7,0,3,0.4,4,1.3c1,0.9,1.5,2,1.5,3.3c0,1.4-0.5,2.6-1.5,3.6S772.1,45.5,770.4,45.5z M765.9,74.4V48.4h9.1v26.1H765.9z"/>
		<path class="st1" d="M794.2,74.9c-2.9,0-5.5-0.6-7.7-1.7c-2.2-1.2-4-2.7-5.3-4.8c-1.3-2-1.9-4.3-1.9-6.9c0-2.6,0.6-4.9,1.9-7
			c1.3-2,3-3.6,5.3-4.8c2.2-1.2,4.8-1.8,7.7-1.8c2.9,0,5.5,0.6,7.6,1.9c2.1,1.3,3.7,3,4.6,5.3l-7.1,3.6c-0.6-1.2-1.4-2.1-2.3-2.7
			c-0.9-0.6-1.9-0.8-2.9-0.8c-1.1,0-2,0.2-2.9,0.7c-0.8,0.5-1.5,1.2-2,2.1c-0.5,0.9-0.8,2-0.8,3.4c0,1.3,0.3,2.4,0.8,3.4
			c0.5,0.9,1.2,1.6,2,2.1c0.8,0.5,1.8,0.7,2.9,0.7c1.1,0,2-0.3,2.9-0.8c0.9-0.6,1.6-1.4,2.3-2.7l7.1,3.6c-0.9,2.2-2.4,4-4.6,5.3
			C799.7,74.2,797.1,74.9,794.2,74.9z"/>
		<path class="st1" d="M818.1,74.9c-2,0-3.8-0.4-5.3-1.1s-2.6-1.7-3.3-2.9c-0.8-1.2-1.1-2.6-1.1-4c0-1.6,0.4-3,1.2-4.2
			c0.8-1.2,2.1-2.1,3.8-2.7s3.9-0.9,6.6-0.9h6.1v4.8h-4.9c-1.5,0-2.5,0.2-3.1,0.7c-0.6,0.4-0.9,1.1-0.9,1.9c0,0.8,0.3,1.4,0.9,1.9
			s1.4,0.7,2.5,0.7c1,0,1.9-0.2,2.8-0.7c0.8-0.5,1.4-1.3,1.8-2.3l1.2,3.4c-0.5,1.8-1.4,3.1-2.8,4.1
			C822.2,74.4,820.3,74.9,818.1,74.9z M825.7,74.4v-4.8l-0.6-1.2v-8.9c0-1.4-0.4-2.6-1.3-3.3c-0.9-0.8-2.3-1.2-4.2-1.2
			c-1.2,0-2.5,0.2-3.8,0.6c-1.3,0.4-2.4,0.9-3.3,1.6l-3-6.1c1.5-1,3.2-1.7,5.3-2.3c2.1-0.5,4.1-0.8,6.2-0.8c4.2,0,7.5,1,9.8,2.9
			c2.3,2,3.5,5,3.5,9.1v14.4H825.7z"/>
		<path class="st1" d="M853.3,74.9c-2.9,0-5.5-0.6-7.7-1.7c-2.2-1.2-4-2.7-5.3-4.8c-1.3-2-1.9-4.3-1.9-6.9c0-2.6,0.6-4.9,1.9-7
			c1.3-2,3-3.6,5.3-4.8c2.2-1.2,4.8-1.8,7.7-1.8c2.9,0,5.5,0.6,7.6,1.9c2.1,1.3,3.7,3,4.6,5.3l-7.1,3.6c-0.6-1.2-1.4-2.1-2.3-2.7
			c-0.9-0.6-1.9-0.8-2.9-0.8c-1.1,0-2,0.2-2.9,0.7c-0.8,0.5-1.5,1.2-2,2.1c-0.5,0.9-0.8,2-0.8,3.4c0,1.3,0.3,2.4,0.8,3.4
			c0.5,0.9,1.2,1.6,2,2.1c0.8,0.5,1.8,0.7,2.9,0.7c1.1,0,2-0.3,2.9-0.8c0.9-0.6,1.6-1.4,2.3-2.7l7.1,3.6c-0.9,2.2-2.4,4-4.6,5.3
			C858.8,74.2,856.2,74.9,853.3,74.9z"/>
		<path class="st1" d="M873.5,45.5c-1.7,0-3-0.5-4.1-1.4c-1-0.9-1.5-2.1-1.5-3.5c0-1.4,0.5-2.5,1.5-3.4c1-0.9,2.4-1.4,4.1-1.4
			c1.7,0,3,0.4,4,1.3c1,0.9,1.5,2,1.5,3.3c0,1.4-0.5,2.6-1.5,3.6S875.2,45.5,873.5,45.5z M868.9,74.4V48.4h9.1v26.1H868.9z"/>
		<path class="st1" d="M897,74.9c-2.8,0-5.4-0.6-7.6-1.7c-2.2-1.2-3.9-2.7-5.2-4.8c-1.3-2-1.9-4.3-1.9-6.9c0-2.6,0.6-5,1.9-7
			c1.3-2,3-3.6,5.2-4.8s4.7-1.7,7.6-1.7c2.8,0,5.4,0.6,7.6,1.7c2.2,1.2,4,2.7,5.2,4.8c1.3,2,1.9,4.4,1.9,7c0,2.6-0.6,4.9-1.9,6.9
			c-1.3,2-3,3.6-5.2,4.8C902.4,74.3,899.9,74.9,897,74.9z M897,67.6c1,0,1.9-0.2,2.8-0.7c0.8-0.5,1.5-1.2,2-2.1
			c0.5-0.9,0.7-2.1,0.7-3.4c0-1.3-0.2-2.5-0.7-3.4c-0.5-0.9-1.2-1.6-2-2.1c-0.8-0.5-1.7-0.7-2.8-0.7c-1,0-1.9,0.2-2.8,0.7
			c-0.8,0.5-1.5,1.2-2,2.1c-0.5,0.9-0.7,2-0.7,3.4c0,1.3,0.2,2.4,0.7,3.4c0.5,0.9,1.2,1.7,2,2.1C895.1,67.4,896,67.6,897,67.6z"/>
		<path class="st1" d="M932.9,47.9c2,0,3.8,0.4,5.5,1.2c1.6,0.8,2.9,2.1,3.9,3.8c0.9,1.7,1.4,3.9,1.4,6.6v14.9h-9.2V61
			c0-1.9-0.4-3.2-1.1-4.1c-0.8-0.8-1.8-1.3-3-1.3c-1,0-1.9,0.2-2.7,0.6c-0.8,0.4-1.4,1.1-1.9,2c-0.4,0.9-0.7,2.1-0.7,3.6v12.5h-9.1
			V48.4h8.7v7.4l-1.7-2.2c1-1.9,2.4-3.3,4.1-4.2C928.7,48.4,930.7,47.9,932.9,47.9z"/>
		<path class="st1" d="M997.2,47.9c2,0,3.8,0.4,5.4,1.2c1.6,0.8,2.8,2.1,3.7,3.8c0.9,1.7,1.4,3.9,1.4,6.6v14.9h-9.1V61
			c0-1.9-0.4-3.2-1.1-4.1c-0.7-0.8-1.7-1.3-2.9-1.3c-0.9,0-1.7,0.2-2.4,0.6c-0.7,0.4-1.2,1-1.6,1.9c-0.4,0.8-0.6,2-0.6,3.3v12.9H981
			V61c0-1.9-0.3-3.2-1-4.1c-0.7-0.8-1.7-1.3-2.9-1.3c-0.9,0-1.6,0.2-2.4,0.6c-0.7,0.4-1.3,1-1.7,1.9c-0.4,0.8-0.6,2-0.6,3.3v12.9
			h-9.1V48.4h8.7v7.3l-1.7-2.1c0.9-1.9,2.2-3.3,3.9-4.2c1.7-1,3.5-1.4,5.6-1.4c2.4,0,4.4,0.6,6.2,1.8c1.8,1.2,2.9,3.1,3.6,5.6
			l-3-0.7c0.9-2.1,2.3-3.7,4.2-4.9C992.6,48.5,994.8,47.9,997.2,47.9z"/>
		<path class="st1" d="M1026.5,74.9c-2.8,0-5.4-0.6-7.6-1.7c-2.2-1.2-3.9-2.7-5.2-4.8c-1.3-2-1.9-4.3-1.9-6.9c0-2.6,0.6-5,1.9-7
			c1.3-2,3-3.6,5.2-4.8s4.7-1.7,7.6-1.7c2.8,0,5.4,0.6,7.6,1.7c2.2,1.2,4,2.7,5.2,4.8c1.3,2,1.9,4.4,1.9,7c0,2.6-0.6,4.9-1.9,6.9
			c-1.3,2-3,3.6-5.2,4.8C1031.9,74.3,1029.4,74.9,1026.5,74.9z M1026.5,67.6c1,0,1.9-0.2,2.8-0.7c0.8-0.5,1.5-1.2,2-2.1
			c0.5-0.9,0.7-2.1,0.7-3.4c0-1.3-0.2-2.5-0.7-3.4c-0.5-0.9-1.2-1.6-2-2.1c-0.8-0.5-1.7-0.7-2.8-0.7c-1,0-1.9,0.2-2.8,0.7
			c-0.8,0.5-1.5,1.2-2,2.1c-0.5,0.9-0.7,2-0.7,3.4c0,1.3,0.2,2.4,0.7,3.4c0.5,0.9,1.2,1.7,2,2.1
			C1024.6,67.4,1025.5,67.6,1026.5,67.6z M1021.7,45.3l6.4-7.2h9.2l-9.1,7.2H1021.7z"/>
		<path class="st1" d="M1052.7,74.4L1042,48.4h9.4l8.5,21.8h-4.7l9-21.8h8.6l-10.7,26.1H1052.7z"/>
		<path class="st1" d="M1079.8,45.5c-1.7,0-3-0.5-4.1-1.4c-1-0.9-1.5-2.1-1.5-3.5c0-1.4,0.5-2.5,1.5-3.4c1-0.9,2.4-1.4,4.1-1.4
			c1.7,0,3,0.4,4,1.3c1,0.9,1.5,2,1.5,3.3c0,1.4-0.5,2.6-1.5,3.6S1081.4,45.5,1079.8,45.5z M1075.2,74.4V48.4h9.1v26.1H1075.2z"/>
		<path class="st1" d="M1090.2,74.4V38.8h9.1v35.6H1090.2z"/>
		<path class="st1" d="M522.5,132.5c-2.9,0-5.5-0.6-7.7-1.7c-2.2-1.2-4-2.7-5.3-4.8c-1.3-2-1.9-4.3-1.9-6.9c0-2.6,0.6-4.9,1.9-7
			c1.3-2,3-3.6,5.3-4.8c2.2-1.2,4.8-1.8,7.7-1.8c2.9,0,5.5,0.6,7.6,1.9c2.1,1.3,3.7,3,4.6,5.3l-7.1,3.6c-0.6-1.2-1.4-2.1-2.3-2.7
			c-0.9-0.6-1.9-0.8-2.9-0.8c-1.1,0-2,0.2-2.9,0.7c-0.8,0.5-1.5,1.2-2,2.1c-0.5,0.9-0.8,2-0.8,3.4c0,1.3,0.3,2.4,0.8,3.4
			c0.5,0.9,1.2,1.6,2,2.1c0.8,0.5,1.8,0.7,2.9,0.7c1.1,0,2-0.3,2.9-0.8c0.9-0.6,1.6-1.4,2.3-2.7l7.1,3.6c-0.9,2.2-2.4,4-4.6,5.3
			C528,131.8,525.5,132.5,522.5,132.5z"/>
		<path class="st1" d="M551.2,132.5c-2.8,0-5.4-0.6-7.6-1.7c-2.2-1.2-3.9-2.7-5.2-4.8c-1.3-2-1.9-4.3-1.9-6.9c0-2.6,0.6-5,1.9-7
			c1.3-2,3-3.6,5.2-4.8s4.7-1.7,7.6-1.7c2.8,0,5.4,0.6,7.6,1.7c2.2,1.2,4,2.7,5.2,4.8c1.3,2,1.9,4.4,1.9,7c0,2.6-0.6,4.9-1.9,6.9
			c-1.3,2-3,3.6-5.2,4.8C556.6,131.9,554.1,132.5,551.2,132.5z M551.2,125.2c1,0,1.9-0.2,2.8-0.7c0.8-0.5,1.5-1.2,2-2.1
			c0.5-0.9,0.7-2.1,0.7-3.4c0-1.3-0.2-2.5-0.7-3.4c-0.5-0.9-1.2-1.6-2-2.1c-0.8-0.5-1.7-0.7-2.8-0.7c-1,0-1.9,0.2-2.8,0.7
			c-0.8,0.5-1.5,1.2-2,2.1c-0.5,0.9-0.7,2-0.7,3.4c0,1.3,0.2,2.4,0.7,3.4c0.5,0.9,1.2,1.7,2,2.1C549.3,125,550.2,125.2,551.2,125.2z
			"/>
		<path class="st1" d="M587.1,105.5c2,0,3.8,0.4,5.5,1.2c1.6,0.8,2.9,2.1,3.9,3.8c0.9,1.7,1.4,3.9,1.4,6.6V132h-9.2v-13.4
			c0-1.9-0.4-3.2-1.1-4.1c-0.8-0.8-1.8-1.3-3-1.3c-1,0-1.9,0.2-2.7,0.6c-0.8,0.4-1.4,1.1-1.9,2c-0.4,0.9-0.7,2.1-0.7,3.6V132h-9.1
			V106h8.7v7.4l-1.7-2.2c1-1.9,2.4-3.3,4.1-4.2C583,106,584.9,105.5,587.1,105.5z"/>
		<path class="st1" d="M634.5,105.5c2,0,3.8,0.4,5.5,1.2c1.6,0.8,2.9,2.1,3.9,3.8c0.9,1.7,1.4,3.9,1.4,6.6V132H636v-13.4
			c0-1.9-0.4-3.2-1.1-4.1c-0.8-0.8-1.8-1.3-3-1.3c-1,0-1.9,0.2-2.7,0.6c-0.8,0.4-1.4,1.1-1.9,2c-0.4,0.9-0.7,2.1-0.7,3.6V132h-9.1
			V106h8.7v7.4l-1.7-2.2c1-1.9,2.4-3.3,4.1-4.2C630.3,106,632.3,105.5,634.5,105.5z"/>
		<path class="st1" d="M664,132.5c-2.8,0-5.4-0.6-7.6-1.7c-2.2-1.2-3.9-2.7-5.2-4.8c-1.3-2-1.9-4.3-1.9-6.9c0-2.6,0.6-5,1.9-7
			c1.3-2,3-3.6,5.2-4.8s4.7-1.7,7.6-1.7c2.8,0,5.4,0.6,7.6,1.7c2.2,1.2,4,2.7,5.2,4.8c1.3,2,1.9,4.4,1.9,7c0,2.6-0.6,4.9-1.9,6.9
			c-1.3,2-3,3.6-5.2,4.8C669.4,131.9,666.8,132.5,664,132.5z M664,125.2c1,0,1.9-0.2,2.8-0.7c0.8-0.5,1.5-1.2,2-2.1
			c0.5-0.9,0.7-2.1,0.7-3.4c0-1.3-0.2-2.5-0.7-3.4c-0.5-0.9-1.2-1.6-2-2.1c-0.8-0.5-1.7-0.7-2.8-0.7c-1,0-1.9,0.2-2.8,0.7
			c-0.8,0.5-1.5,1.2-2,2.1c-0.5,0.9-0.7,2-0.7,3.4c0,1.3,0.2,2.4,0.7,3.4c0.5,0.9,1.2,1.7,2,2.1C662,125,663,125.2,664,125.2z"/>
		<path class="st1" d="M692.4,132.5c-2.2,0-4.4-0.3-6.5-0.8c-2.1-0.5-3.8-1.2-5.1-1.9l2.7-6.2c1.2,0.7,2.7,1.3,4.3,1.8
			c1.6,0.4,3.2,0.7,4.8,0.7c1.5,0,2.6-0.2,3.2-0.5c0.6-0.3,0.9-0.8,0.9-1.4c0-0.5-0.3-0.8-0.8-1.1c-0.5-0.3-1.3-0.4-2.2-0.6
			c-0.9-0.1-1.9-0.2-3-0.4s-2.2-0.4-3.3-0.7c-1.1-0.3-2.1-0.7-3-1.3c-0.9-0.5-1.6-1.3-2.2-2.3c-0.5-1-0.8-2.2-0.8-3.6
			c0-1.7,0.5-3.1,1.5-4.4c1-1.3,2.4-2.3,4.3-3.1c1.9-0.8,4.2-1.2,6.9-1.2c1.8,0,3.7,0.2,5.5,0.6c1.9,0.4,3.4,0.9,4.7,1.7l-2.7,6.2
			c-1.3-0.8-2.6-1.3-3.8-1.5c-1.3-0.3-2.5-0.4-3.6-0.4c-1.5,0-2.6,0.2-3.3,0.5c-0.7,0.3-1,0.8-1,1.3c0,0.5,0.3,0.9,0.9,1.2
			c0.6,0.3,1.3,0.5,2.2,0.6c0.9,0.1,1.9,0.3,3,0.4c1.1,0.1,2.2,0.4,3.3,0.6c1.1,0.3,2.1,0.7,3,1.3c0.9,0.6,1.6,1.3,2.2,2.3
			c0.6,0.9,0.8,2.2,0.8,3.7c0,1.6-0.5,3-1.4,4.3c-1,1.3-2.4,2.3-4.3,3.1C697.5,132.1,695.2,132.5,692.4,132.5z"/>
		<path class="st1" d="M722.2,132.5c-2.8,0-5.4-0.6-7.6-1.7c-2.2-1.2-3.9-2.7-5.2-4.8c-1.3-2-1.9-4.3-1.9-6.9c0-2.6,0.6-5,1.9-7
			c1.3-2,3-3.6,5.2-4.8s4.7-1.7,7.6-1.7c2.8,0,5.4,0.6,7.6,1.7c2.2,1.2,4,2.7,5.2,4.8c1.3,2,1.9,4.4,1.9,7c0,2.6-0.6,4.9-1.9,6.9
			c-1.3,2-3,3.6-5.2,4.8C727.6,131.9,725.1,132.5,722.2,132.5z M722.2,125.2c1,0,1.9-0.2,2.8-0.7c0.8-0.5,1.5-1.2,2-2.1
			c0.5-0.9,0.7-2.1,0.7-3.4c0-1.3-0.2-2.5-0.7-3.4c-0.5-0.9-1.2-1.6-2-2.1c-0.8-0.5-1.7-0.7-2.8-0.7c-1,0-1.9,0.2-2.8,0.7
			c-0.8,0.5-1.5,1.2-2,2.1c-0.5,0.9-0.7,2-0.7,3.4c0,1.3,0.2,2.4,0.7,3.4c0.5,0.9,1.2,1.7,2,2.1C720.3,125,721.2,125.2,722.2,125.2z
			"/>
		<path class="st1" d="M738.4,113.8V107h18.9v6.8H738.4z M752.7,132.5c-3.3,0-5.9-0.8-7.8-2.5c-1.9-1.6-2.8-4.1-2.8-7.5v-22.4h9.1
			v22.2c0,1,0.2,1.7,0.7,2.3c0.5,0.5,1.2,0.8,2,0.8c1.1,0,2-0.3,2.8-0.8l2.3,6.3c-0.8,0.5-1.8,0.9-2.9,1.2
			C755.1,132.3,753.9,132.5,752.7,132.5z"/>
		<path class="st1" d="M762.6,132V106h8.7v7.6l-1.3-2.2c0.8-2,2.1-3.4,3.8-4.4c1.7-1,3.8-1.5,6.3-1.5v8.3c-0.4-0.1-0.8-0.1-1.1-0.1
			c-0.3,0-0.6,0-1,0c-1.9,0-3.4,0.5-4.5,1.5c-1.2,1-1.7,2.6-1.7,4.9v12H762.6z"/>
		<path class="st1" d="M796.9,132.5c-2.8,0-5.4-0.6-7.6-1.7c-2.2-1.2-3.9-2.7-5.2-4.8c-1.3-2-1.9-4.3-1.9-6.9c0-2.6,0.6-5,1.9-7
			c1.3-2,3-3.6,5.2-4.8s4.7-1.7,7.6-1.7c2.8,0,5.4,0.6,7.6,1.7c2.2,1.2,4,2.7,5.2,4.8c1.3,2,1.9,4.4,1.9,7c0,2.6-0.6,4.9-1.9,6.9
			c-1.3,2-3,3.6-5.2,4.8C802.3,131.9,799.7,132.5,796.9,132.5z M796.9,125.2c1,0,1.9-0.2,2.8-0.7c0.8-0.5,1.5-1.2,2-2.1
			c0.5-0.9,0.7-2.1,0.7-3.4c0-1.3-0.2-2.5-0.7-3.4c-0.5-0.9-1.2-1.6-2-2.1c-0.8-0.5-1.7-0.7-2.8-0.7c-1,0-1.9,0.2-2.8,0.7
			c-0.8,0.5-1.5,1.2-2,2.1c-0.5,0.9-0.7,2-0.7,3.4c0,1.3,0.2,2.4,0.7,3.4c0.5,0.9,1.2,1.7,2,2.1C794.9,125,795.9,125.2,796.9,125.2z
			"/>
		<path class="st1" d="M825.3,132.5c-2.2,0-4.4-0.3-6.5-0.8c-2.1-0.5-3.8-1.2-5.1-1.9l2.7-6.2c1.2,0.7,2.7,1.3,4.3,1.8
			c1.6,0.4,3.2,0.7,4.8,0.7c1.5,0,2.6-0.2,3.2-0.5c0.6-0.3,0.9-0.8,0.9-1.4c0-0.5-0.3-0.8-0.8-1.1c-0.5-0.3-1.3-0.4-2.2-0.6
			c-0.9-0.1-1.9-0.2-3-0.4s-2.2-0.4-3.3-0.7c-1.1-0.3-2.1-0.7-3-1.3c-0.9-0.5-1.6-1.3-2.2-2.3c-0.5-1-0.8-2.2-0.8-3.6
			c0-1.7,0.5-3.1,1.5-4.4c1-1.3,2.4-2.3,4.3-3.1c1.9-0.8,4.2-1.2,6.9-1.2c1.8,0,3.7,0.2,5.5,0.6c1.9,0.4,3.4,0.9,4.7,1.7l-2.7,6.2
			c-1.3-0.8-2.6-1.3-3.8-1.5c-1.3-0.3-2.5-0.4-3.6-0.4c-1.5,0-2.6,0.2-3.3,0.5c-0.7,0.3-1,0.8-1,1.3c0,0.5,0.3,0.9,0.9,1.2
			c0.6,0.3,1.3,0.5,2.2,0.6c0.9,0.1,1.9,0.3,3,0.4c1.1,0.1,2.2,0.4,3.3,0.6c1.1,0.3,2.1,0.7,3,1.3c0.9,0.6,1.6,1.3,2.2,2.3
			c0.6,0.9,0.8,2.2,0.8,3.7c0,1.6-0.5,3-1.4,4.3c-1,1.3-2.4,2.3-4.3,3.1C830.4,132.1,828.1,132.5,825.3,132.5z"/>
		<path class="st1" d="M842.7,119.8l-1.8-21.4h10.9l-1.8,21.4H842.7z M846.4,132.5c-1.6,0-2.9-0.5-3.9-1.5c-1-1-1.5-2.2-1.5-3.6
			c0-1.4,0.5-2.6,1.5-3.5c1-0.9,2.3-1.4,3.9-1.4c1.6,0,2.9,0.5,3.9,1.4c1,0.9,1.5,2.1,1.5,3.5c0,1.4-0.5,2.6-1.5,3.6
			C849.3,132,848,132.5,846.4,132.5z"/>
	</g>
</g>
</svg>
