<?xml version="1.0" encoding="utf-8"?>
<!-- Generator: Adobe Illustrator 26.0.0, SVG Export Plug-In . SVG Version: 6.00 Build 0)  -->
<svg version="1.1" id="Layer_1" xmlns="http://www.w3.org/2000/svg" xmlns:xlink="http://www.w3.org/1999/xlink" x="0px" y="0px"
	 viewBox="0 0 693 528" style="enable-background:new 0 0 693 528;" xml:space="preserve">
<style type="text/css">
	.st0{fill:#F2F2F2;}
	.st1{fill:#E6E6E6;}
	.st2{fill:#80ED99;}
	.st3{fill:#3F3D56;}
	.st4{fill:#FFB6B6;}
	.st5{fill:#2F2E41;}
</style>
<path class="st0" d="M693,283.5v221.8c0,12.5-10.2,22.7-22.7,22.7H500.2l1.6-2L691,286L693,283.5z"/>
<path class="st1" d="M270.8,205.4H75.4c-3.3,0-6,2.7-6,6s2.7,6,6,6h195.4c3.3,0,6-2.7,6-6C276.8,208.1,274.1,205.4,270.8,205.4z"/>
<path class="st1" d="M136,171.5H75.4c-3.3,0-6,2.7-6,6s2.7,6,6,6H136c3.3,0,6-2.7,6-6S139.3,171.5,136,171.5L136,171.5z"/>
<path class="st1" d="M670.3,0H22.7C10.2,0,0,10.2,0,22.7v482.6C0,517.8,10.2,528,22.7,528h647.6c12.5,0,22.7-10.2,22.7-22.7V22.7
	C693,10.2,682.8,0,670.3,0z M691,505.3c0,11.4-9.3,20.7-20.7,20.7l0,0H22.7C11.3,526,2,516.7,2,505.3l0,0V157.7
	C2,71.7,71.7,2,157.7,2h512.6c11.4,0,20.7,9.3,20.7,20.7l0,0V505.3z"/>
<path class="st1" d="M629.9,87.3H63.2c-0.6,0-1-0.4-1-1s0.4-1,1-1h566.7c0.6,0,1,0.4,1,1S630.4,87.3,629.9,87.3z"/>
<ellipse class="st1" cx="91.5" cy="48.6" rx="8.5" ry="8.6"/>
<ellipse class="st1" cx="120.7" cy="48.6" rx="8.5" ry="8.6"/>
<ellipse class="st1" cx="149.9" cy="48.6" rx="8.5" ry="8.6"/>
<path class="st1" d="M183.3,55.4c-0.3,0-0.5-0.1-0.7-0.3l-5.7-5.8c-0.4-0.4-0.4-1,0-1.4l5.7-5.8c0.4-0.4,1-0.4,1.4,0s0.4,1,0,1.4
	l0,0l-5,5.1l5,5.1c0.4,0.4,0.4,1,0,1.4C183.8,55.3,183.5,55.4,183.3,55.4L183.3,55.4z"/>
<path class="st1" d="M192.8,55.4c-0.6,0-1-0.4-1-1c0-0.3,0.1-0.5,0.3-0.7l5-5.1l-5-5.1c-0.4-0.4-0.4-1,0-1.4s1-0.4,1.4,0l5.7,5.8
	c0.4,0.4,0.4,1,0,1.4l-5.7,5.8C193.4,55.3,193.1,55.4,192.8,55.4z"/>
<path class="st1" d="M579.4,41h-10.6c-1.2,0-2.2,1-2.2,2.2l0,0v10.6c0,1.2,1,2.2,2.2,2.2l0,0h10.6c1.2,0,2.2-1,2.2-2.2V43.1
	C581.5,41.9,580.6,41,579.4,41z"/>
<path class="st1" d="M553.4,41h-10.6c-1.2,0-2.2,1-2.2,2.2l0,0v10.6c0,1.2,1,2.2,2.2,2.2l0,0h10.6c1.2,0,2.2-1,2.2-2.2V43.1
	C555.5,41.9,554.6,41,553.4,41z"/>
<path class="st1" d="M603.9,41.5h-10.6c-1.2,0-2.2,1-2.2,2.2l0,0v10.6c0,1.2,1,2.2,2.2,2.2l0,0h10.6c1.2,0,2.2-1,2.2-2.2V43.6
	C606,42.4,605.1,41.5,603.9,41.5z"/>
<path class="st1" d="M388.9,45.5h-84.8c-1.5,0-2.7,1.2-2.7,2.7s1.2,2.7,2.7,2.7l0,0h84.8c1.5,0,2.7-1.2,2.7-2.7
	C391.6,46.7,390.4,45.5,388.9,45.5z"/>
<path class="st2" d="M161.6,410.4l-50.7-1.6c-7-0.2-14.9-0.2-20,3.4c-5.7,4.1-4.8,11.4-0.1,16.2s12.3,7.4,19.7,9.7
	c39.4,11.7,82.9,14.1,125.2,11.4s83.7-10.1,125-17.6c3.9-0.7,8.3-1.7,9.9-4.4c1.5-2.6-0.5-5.8-3.6-7.5s-7.1-2.3-10.9-2.8
	c-69.4-9.1-139.6-11.1-209.5-6"/>
<path class="st3" d="M252.7,371.4v-12c-8.7,0.1-39.9-0.1-48,0c-0.6,41.9-4.3,33.7,30,33.9c3.3,0,5.9,2.7,6,6v0.2c0,3.3-2.7,6-6,6
	h-30v12h48c0.1,0,0-11.6,0-12c2-34.8-2-22.3-31.2-23.7c-2.7-0.1-4.8-2.4-4.8-5.1v-0.1c0-2.8,2.3-5.1,5.1-5.1L252.7,371.4z"/>
<path class="st3" d="M311.7,371.4v-12c-8.7,0.1-39.9-0.1-48,0c-0.6,42.3-4.4,33.6,31,33.9c2.8,0,5,2.3,5,5.1c0,0.6,0,1.3,0,1.9
	c0,2.8-2.3,5.1-5.1,5.1l0,0h-30.9v12h48c0.1,0,0-11.6,0-12c2-34.8-2-22.3-31.2-23.7c-2.7-0.1-4.8-2.4-4.8-5.1v-0.1
	c0-2.8,2.3-5.1,5.1-5.1L311.7,371.4L311.7,371.4z"/>
<path class="st3" d="M190.7,371.4v-12h-48c0,10.7,0,39,0,50c-9.4,15.9,44,4.9,48,8v-12c-36.5-0.2-37.4,6.6-36.3-26.4
	c0.1-4.2,3.6-7.6,7.8-7.6C172.9,371.4,190.7,371.4,190.7,371.4z"/>
<path class="st2" d="M285.6,267.1l-50.7-1.3c-7-0.2-14.9-0.2-20,2.9c-5.7,3.4-4.8,9.5-0.1,13.5s12.3,6.2,19.7,8
	c39.4,9.8,82.9,11.7,125.2,9.5s83.7-8.4,125-14.7c3.9-0.6,8.3-1.4,9.9-3.7c1.5-2.2-0.5-4.8-3.6-6.3s-7.1-1.9-10.9-2.3
	c-69.6-7.6-139.7-9.3-209.5-5"/>
<path class="st3" d="M276.7,214.4c-0.8,18.5,6,24.4-17.5,22c-1.6-11.1,6.5-26.4-12-22.5c3.7,8-10.3,68.8,12,58
	c1.3-18.3-7-26.3,17.5-23.5c2,11.3-7.2,27.9,12,24C285,264.4,299,203.6,276.7,214.4z"/>
<path class="st3" d="M399.7,214.4c1.6,1-15.1,18.7-15.5,20.2c-0.5-1.2-16.5-18.6-14.5-20.2c-22.2-11-8.4,50.2-12,58h12v-38
	c16.9,22.7,13.7,18.9,30-1.1v39.1c22.2,11,8.4-50.2,12-58H399.7z"/>
<path class="st3" d="M346.7,214.4h-48c-2.8,16.8,6.5,11.2,18,12v46h12v-46C340.2,225.7,349.6,231.2,346.7,214.4z"/>
<path class="st3" d="M433.7,260.4c-2.8-15.2-2.8-30.8,0-46h-12c0.1,7.6,0,38.3,0,52.3c0,3.2,2.6,5.7,5.7,5.7c12.1,0,35.2-0.1,42.3,0
	v-12H433.7z"/>
<path class="st1" d="M127.2,262.4H78.4c-5,0-9,4-9,9s4,9,9,9h48.8c5,0,9-4,9-9S132.2,262.4,127.2,262.4L127.2,262.4z"/>
<polygon class="st4" points="569.4,517.6 559.5,517.6 554.8,479.4 569.4,479.4 "/>
<path class="st5" d="M569.7,527.9h-30.4v-0.4c0-6.5,5.3-11.9,11.9-11.9l0,0l5.6-4.2l10.4,4.2h2.7L569.7,527.9z"/>
<polygon class="st4" points="604.4,517.6 594.5,517.6 589.8,479.4 604.4,479.4 "/>
<path class="st5" d="M604.7,527.9h-30.4v-0.4c0-6.5,5.3-11.9,11.9-11.9l0,0l5.6-4.2l10.4,4.2h2.7L604.7,527.9z"/>
<path class="st5" d="M544.7,309.5c0,0-9.5,29.3-7.8,33.1s4.8,0.9,1.8,3.9s-5.6-0.2-2.8,4.9s7.1,47,8.9,49.1s4.4,2.1,2.2,4.1
	s-5.3-2-2.3,2s11,96.3,11,96.3h15.6c0,0,3.9-4.5,1.7-7.4s0.2-4,0-6s0.5-6.1,0.7-8s2.8-47.4-3.6-73.6l11.5-50l5.8,60.4
	c0,0-6.4,50.7,0,67c0,0-5.2,4.3-2.9,6.8s4.3,0.5,2.3,2.5s3,9,3,9l17-1l9.6-94.7c0,0,1.6-9.9,0-11.6s-1.6,4.3-1.6-1.7v-8
	c0,0,7.3-49.2,7.1-52.1s-12.1-23.9-12.1-23.9L544.7,309.5z"/>
<path class="st1" d="M595,191.1l-24.8-1.7l-7.4,11.7l-17.9,7.3v57.7c1.9,5.6,2.8,11.4,2.9,17.3c-0.1,11.5-3,25-2,28c10,29,65,0,65,0
	l-1-31l1.4-70.1l-11.2-9L595,191.1z"/>
<path class="st4" d="M543.7,322l-1.7-18.2l-10.6-0.5l2.5,19.2c-1.9,2.8-1.2,6.6,1.6,8.5s6.6,1.2,8.5-1.6
	C545.7,327.1,545.5,324.1,543.7,322L543.7,322z"/>
<path class="st1" d="M548.9,206.9h-0.3c-5.5,0.9-10.2,4.5-12.6,9.6c-3,6.5-12.8,49.5-8.5,56c3.3,5,2.5,4,1,7.8s-4.1-0.3-2,5.8
	s4.3,5.2,2.4,7.5s-3.9,1.9-2,5.8s1.6,5.2,1.9,6.7s0,11.8,0,11.8s11.3-0.9,16.9,1.8c0,0-3.1-10.4-1.4-12.1s3.9-1.9,2.4-4.3
	s-5-2.5-1.2-3.7s2.5-23,2.5-23C554.2,260.5,551.8,233.9,548.9,206.9z"/>
<path class="st4" d="M616.9,323.3l0.8-18.3l10.5-1l-1.5,19.3c2,2.7,1.5,6.6-1.2,8.6s-6.6,1.5-8.6-1.2
	C615.3,328.5,615.3,325.5,616.9,323.3z"/>
<path class="st1" d="M605.9,208.6h0.3c5.6,0.7,10.5,4,13.1,9c3.3,6.4,13.9,49.6,11.4,55.5c-2.4,5.5-2.3,4.2-0.6,7.9s4.1-0.5,2.3,5.7
	s-4.1,5.4-2,7.6s4,1.7,2.3,5.7s-1.3,5.3-1.6,6.8s0.5,11.8,0.5,11.8s-11.3-0.3-16.8,2.7c0,0,2.6-10.6,0.7-12.1s-4-1.7-2.6-4.2
	s4.8-2.8,1-3.8s-3.7-22.8-3.7-22.8L605.9,208.6z"/>
<circle class="st4" cx="583.2" cy="166.4" r="19.4"/>
<path class="st5" d="M596.7,183c2.7-2.1,3-6.1,5.3-8.7c3.8-4.2,5.6-8.8,3.6-13.8c-1.8-4.4-1.4-9.9-5.2-12.7c1.9-0.7,2.3-2.1,0.7-2.1
	c-1.1,0-5.3,2.1-3.3-0.5s-1.8-1.6-1.5-2.7s1.9-1.7,2.6-0.8c-2.2-2.2-5.7-2.3-8-0.1c-0.3,0.3-0.6,0.7-0.9,1.1
	c-2.3-3.4-4.7-5.7-8.1-3.6c-3.4,2.1-3.4,4.7-7,4.1c-1.7-0.3-1.9,3-3.1,4.2c-1.1,1.4-2.8,2.1-4.6,2c-1.7-0.3-3-2.5-2.1-3.9l-4,9.2
	l-1.6-2c-2.6,1.7-1.7,6.1,0.9,7.8s6,1.3,9,0.6c3.6-0.9,7.3-1.2,11.1-0.9c5.7,0.8,9.6,7.6,7.5,12.9c2.2-2.1,6.2-0.4,7.3,2.5
	s0.3,6-0.5,9"/>
<g>
	<g>
		<path class="st2" d="M699.1,122.4V97.2h7.1v19.5h12v5.7H699.1z"/>
		<path class="st2" d="M726.8,122.7c-1.5,0-2.8-0.3-3.9-0.8s-1.9-1.2-2.5-2.2c-0.6-0.9-0.8-1.9-0.8-3c0-1.2,0.3-2.2,0.9-3.1
			s1.6-1.6,2.8-2c1.3-0.5,2.9-0.7,4.9-0.7h4.6v3.6h-3.7c-1.1,0-1.9,0.2-2.3,0.5c-0.4,0.3-0.7,0.8-0.7,1.4s0.2,1.1,0.7,1.4
			c0.5,0.4,1.1,0.6,1.9,0.6c0.8,0,1.5-0.2,2.1-0.6s1-0.9,1.3-1.7l0.9,2.5c-0.4,1.3-1.1,2.4-2.1,3S728.6,122.7,726.8,122.7z
			 M732.6,122.4v-3.6l-0.5-0.9v-6.7c0-1.1-0.3-1.9-1-2.5c-0.7-0.6-1.7-0.9-3.1-0.9c-0.9,0-1.9,0.2-2.9,0.5s-1.8,0.7-2.5,1.2
			l-2.3-4.6c1.1-0.7,2.4-1.3,4-1.7s3.1-0.6,4.6-0.6c3.2,0,5.6,0.7,7.4,2.2c1.7,1.5,2.6,3.7,2.6,6.8v10.8
			C738.9,122.4,732.6,122.4,732.6,122.4z"/>
		<path class="st2" d="M756,102.5c1.5,0,2.9,0.3,4.1,0.9c1.2,0.6,2.2,1.6,2.9,2.8c0.7,1.2,1.1,2.9,1.1,4.9v11.2h-6.9v-10
			c0-1.4-0.3-2.4-0.8-3c-0.6-0.6-1.3-1-2.3-1c-0.7,0-1.4,0.2-2,0.5s-1.1,0.8-1.4,1.5c-0.3,0.7-0.5,1.6-0.5,2.7v9.4h-6.9v-19.5h6.6
			v5.6l-1.3-1.6c0.7-1.4,1.8-2.5,3.1-3.2C752.9,102.9,754.4,102.5,756,102.5z"/>
		<path class="st2" d="M776.9,122.7c-1.8,0-3.4-0.4-4.8-1.2c-1.5-0.8-2.6-2-3.5-3.5s-1.3-3.3-1.3-5.3c0-2.1,0.4-3.9,1.3-5.4
			c0.9-1.5,2-2.7,3.5-3.5s3.1-1.2,4.8-1.2c1.7,0,3.1,0.4,4.2,1.1c1.2,0.7,2.1,1.8,2.7,3.3c0.6,1.5,0.9,3.4,0.9,5.7
			c0,2.3-0.3,4.2-0.8,5.7c-0.6,1.5-1.4,2.6-2.6,3.3C780.1,122.4,778.6,122.7,776.9,122.7z M778.3,117.3c0.8,0,1.5-0.2,2.1-0.5
			c0.6-0.4,1.1-0.9,1.5-1.6s0.5-1.5,0.5-2.5s-0.2-1.9-0.5-2.6c-0.4-0.7-0.8-1.2-1.5-1.5c-0.6-0.4-1.3-0.5-2.1-0.5
			c-0.8,0-1.5,0.2-2.1,0.5c-0.6,0.4-1.1,0.9-1.5,1.5c-0.4,0.7-0.5,1.5-0.5,2.6c0,1,0.2,1.8,0.5,2.5c0.4,0.7,0.8,1.2,1.5,1.6
			C776.8,117.1,777.5,117.3,778.3,117.3z M782.6,122.4v-3.3v-6.4l-0.4-6.4V95.7h6.8v26.7H782.6z"/>
		<path class="st2" d="M796.9,100.7c-1.3,0-2.3-0.3-3-1c-0.8-0.7-1.1-1.6-1.1-2.6s0.4-1.9,1.1-2.6c0.8-0.7,1.8-1,3-1
			c1.2,0,2.3,0.3,3,1c0.8,0.6,1.2,1.5,1.2,2.5c0,1.1-0.4,2-1.1,2.7C799.2,100.4,798.2,100.7,796.9,100.7z M793.5,122.4v-19.5h6.8
			v19.5H793.5z"/>
		<path class="st2" d="M817.5,102.5c1.5,0,2.9,0.3,4.1,0.9c1.2,0.6,2.2,1.6,2.9,2.8c0.7,1.2,1.1,2.9,1.1,4.9v11.2h-6.9v-10
			c0-1.4-0.3-2.4-0.8-3c-0.6-0.6-1.3-1-2.3-1c-0.7,0-1.4,0.2-2,0.5s-1.1,0.8-1.4,1.5c-0.3,0.7-0.5,1.6-0.5,2.7v9.4h-6.8v-19.5h6.6
			v5.6l-1.3-1.6c0.7-1.4,1.8-2.5,3.1-3.2C814.4,102.9,815.8,102.5,817.5,102.5z"/>
		<path class="st2" d="M838.1,121.4c-1.7,0-3.3-0.4-4.7-1.2c-1.5-0.8-2.6-1.9-3.5-3.3s-1.3-3.1-1.3-5s0.4-3.6,1.3-5
			c0.9-1.4,2-2.5,3.5-3.3s3-1.2,4.7-1.2c1.7,0,3.1,0.3,4.3,1c1.2,0.7,2.1,1.7,2.7,3.1s0.9,3.2,0.9,5.3c0,2.1-0.3,3.9-0.9,5.3
			c-0.6,1.4-1.5,2.4-2.7,3.1C841.2,121.1,839.8,121.4,838.1,121.4z M839.3,129.7c-1.9,0-3.7-0.2-5.4-0.6c-1.7-0.4-3.1-1.1-4.3-1.9
			l2.5-4.8c0.8,0.6,1.8,1.1,3,1.5c1.2,0.4,2.4,0.6,3.6,0.6c1.8,0,3.1-0.4,3.9-1.2c0.8-0.8,1.2-2,1.2-3.5v-2.3l0.4-5.5v-5.5v-3.6h6.5
			v16c0,3.7-1,6.4-3,8.2C845.8,128.8,843,129.7,839.3,129.7z M839.8,116c0.8,0,1.6-0.2,2.2-0.5s1.1-0.8,1.5-1.4s0.6-1.3,0.6-2.1
			s-0.2-1.5-0.6-2.1s-0.9-1.1-1.5-1.4s-1.4-0.5-2.2-0.5c-0.8,0-1.5,0.2-2.2,0.5c-0.6,0.3-1.1,0.8-1.5,1.4s-0.6,1.3-0.6,2.1
			s0.2,1.5,0.6,2.1c0.4,0.6,0.9,1.1,1.5,1.4C838.2,115.8,839,116,839.8,116z"/>
		<path class="st2" d="M865.7,129.4v-26.5h6.6v3.3l-0.1,6.5l0.4,6.4v10.3H865.7z M877.9,122.7c-1.7,0-3.1-0.4-4.2-1.1
			c-1.2-0.7-2.1-1.8-2.7-3.3s-0.9-3.4-0.9-5.6c0-2.4,0.3-4.3,0.9-5.7c0.6-1.5,1.4-2.6,2.6-3.3c1.2-0.7,2.6-1.1,4.4-1.1
			c1.8,0,3.4,0.4,4.8,1.3c1.5,0.8,2.6,2,3.5,3.5s1.3,3.3,1.3,5.4c0,2-0.4,3.8-1.3,5.3s-2,2.7-3.5,3.5S879.7,122.7,877.9,122.7z
			 M876.5,117.3c0.8,0,1.5-0.2,2.1-0.5c0.6-0.4,1.1-0.9,1.5-1.6s0.6-1.5,0.6-2.5s-0.2-1.9-0.6-2.6s-0.9-1.2-1.5-1.6
			s-1.3-0.5-2.1-0.5c-0.8,0-1.5,0.2-2.1,0.5c-0.6,0.4-1.1,0.9-1.5,1.6s-0.6,1.5-0.6,2.6c0,1,0.2,1.8,0.6,2.5
			c0.4,0.7,0.9,1.2,1.5,1.6C875,117.1,875.7,117.3,876.5,117.3z"/>
		<path class="st2" d="M896.8,122.7c-1.5,0-2.8-0.3-3.9-0.8s-1.9-1.2-2.5-2.2c-0.6-0.9-0.8-1.9-0.8-3c0-1.2,0.3-2.2,0.9-3.1
			s1.6-1.6,2.8-2c1.3-0.5,2.9-0.7,4.9-0.7h4.6v3.6h-3.7c-1.1,0-1.9,0.2-2.3,0.5c-0.4,0.3-0.7,0.8-0.7,1.4s0.2,1.1,0.7,1.4
			c0.5,0.4,1.1,0.6,1.9,0.6c0.8,0,1.5-0.2,2.1-0.6s1-0.9,1.3-1.7l0.9,2.5c-0.4,1.3-1.1,2.4-2.1,3S898.5,122.7,896.8,122.7z
			 M902.6,122.4v-3.6l-0.5-0.9v-6.7c0-1.1-0.3-1.9-1-2.5c-0.7-0.6-1.7-0.9-3.1-0.9c-0.9,0-1.9,0.2-2.9,0.5s-1.8,0.7-2.5,1.2
			l-2.3-4.6c1.1-0.7,2.4-1.3,4-1.7s3.1-0.6,4.6-0.6c3.2,0,5.6,0.7,7.4,2.2c1.7,1.5,2.6,3.7,2.6,6.8v10.8
			C908.9,122.4,902.6,122.4,902.6,122.4z"/>
		<path class="st2" d="M921.6,121.4c-1.7,0-3.3-0.4-4.7-1.2c-1.5-0.8-2.6-1.9-3.5-3.3s-1.3-3.1-1.3-5s0.4-3.6,1.3-5
			c0.9-1.4,2-2.5,3.5-3.3s3-1.2,4.7-1.2c1.7,0,3.1,0.3,4.3,1c1.2,0.7,2.1,1.7,2.7,3.1s0.9,3.2,0.9,5.3c0,2.1-0.3,3.9-0.9,5.3
			c-0.6,1.4-1.5,2.4-2.7,3.1C924.7,121.1,923.3,121.4,921.6,121.4z M922.8,129.7c-1.9,0-3.7-0.2-5.4-0.6c-1.7-0.4-3.1-1.1-4.3-1.9
			l2.5-4.8c0.8,0.6,1.8,1.1,3,1.5c1.2,0.4,2.4,0.6,3.6,0.6c1.8,0,3.1-0.4,3.9-1.2c0.8-0.8,1.2-2,1.2-3.5v-2.3l0.4-5.5v-5.5v-3.6h6.5
			v16c0,3.7-1,6.4-3,8.2C929.3,128.8,926.5,129.7,922.8,129.7z M923.3,116c0.8,0,1.6-0.2,2.2-0.5s1.1-0.8,1.5-1.4s0.6-1.3,0.6-2.1
			s-0.2-1.5-0.6-2.1s-0.9-1.1-1.5-1.4s-1.4-0.5-2.2-0.5c-0.8,0-1.5,0.2-2.2,0.5c-0.6,0.3-1.1,0.8-1.5,1.4s-0.6,1.3-0.6,2.1
			s0.2,1.5,0.6,2.1c0.4,0.6,0.9,1.1,1.5,1.4C921.7,115.8,922.4,116,923.3,116z"/>
		<path class="st2" d="M948.9,122.7c-2.3,0-4.4-0.4-6.1-1.3c-1.7-0.9-3-2.1-4-3.6c-0.9-1.5-1.4-3.2-1.4-5.2s0.5-3.7,1.4-5.2
			s2.2-2.7,3.8-3.6s3.5-1.3,5.5-1.3c1.9,0,3.7,0.4,5.2,1.2c1.6,0.8,2.8,2,3.8,3.5c0.9,1.5,1.4,3.3,1.4,5.5c0,0.2,0,0.5,0,0.8
			s0,0.6-0.1,0.9H943v-3.6h11.8l-2.6,1c0-0.9-0.1-1.6-0.5-2.3s-0.8-1.2-1.4-1.5c-0.6-0.3-1.3-0.5-2.1-0.5c-0.8,0-1.6,0.2-2.2,0.5
			c-0.6,0.4-1.1,0.9-1.4,1.5c-0.3,0.7-0.5,1.4-0.5,2.3v1c0,1,0.2,1.8,0.6,2.5c0.4,0.7,1,1.2,1.7,1.6c0.7,0.4,1.6,0.6,2.7,0.6
			c1,0,1.8-0.1,2.5-0.4c0.7-0.3,1.3-0.7,2-1.3l3.6,3.8c-0.9,1-2.1,1.8-3.4,2.3C952.4,122.5,950.8,122.7,948.9,122.7z"/>
		<path class="st2" d="M964.7,110.7c-1.2,0-2.1-0.4-2.9-1.1s-1.2-1.7-1.2-3c0-1.2,0.4-2.2,1.2-2.9c0.8-0.7,1.8-1.1,2.9-1.1
			c1.1,0,2.1,0.4,2.9,1.1c0.8,0.7,1.2,1.7,1.2,2.9c0,1.2-0.4,2.2-1.2,3C966.8,110.4,965.8,110.7,964.7,110.7z M964.7,122.7
			c-1.2,0-2.1-0.4-2.9-1.1s-1.2-1.7-1.2-3c0-1.2,0.4-2.2,1.2-2.9c0.8-0.7,1.8-1.1,2.9-1.1c1.1,0,2.1,0.4,2.9,1.1
			c0.8,0.7,1.2,1.7,1.2,2.9c0,1.2-0.4,2.2-1.2,3C966.8,122.4,965.8,122.7,964.7,122.7z"/>
		<path class="st2" d="M703.6,144.3c-1.9,0-3.3-0.5-4.3-1.5s-1.6-2.5-1.6-4.3v-7h3.6v6.9c0,1.1,0.2,1.8,0.6,2.3s1,0.7,1.7,0.7
			c0.7,0,1.3-0.2,1.7-0.7s0.6-1.2,0.6-2.3v-6.9h3.5v7c0,1.9-0.5,3.3-1.6,4.3S705.5,144.3,703.6,144.3z"/>
		<path class="st2" d="M718.1,134.1c0.8,0,1.4,0.2,2.1,0.5s1.1,0.8,1.4,1.4c0.4,0.6,0.5,1.5,0.5,2.5v5.6h-3.4v-5
			c0-0.7-0.1-1.2-0.4-1.5c-0.3-0.3-0.7-0.5-1.1-0.5s-0.7,0.1-1,0.2c-0.3,0.2-0.5,0.4-0.7,0.7c-0.2,0.3-0.3,0.8-0.3,1.3v4.7h-3.4
			v-9.8h3.3v2.8l-0.6-0.8c0.4-0.7,0.9-1.2,1.5-1.6C716.6,134.3,717.3,134.1,718.1,134.1z"/>
		<path class="st2" d="M727.4,144.2c-0.8,0-1.4-0.1-2-0.4c-0.5-0.3-1-0.6-1.2-1.1c-0.2-0.5-0.4-1-0.4-1.5c0-0.6,0.2-1.1,0.5-1.6
			c0.3-0.4,0.8-0.8,1.4-1s1.5-0.4,2.5-0.4h2.3v1.8h-1.8c-0.6,0-0.9,0.1-1.2,0.3c-0.2,0.2-0.3,0.4-0.3,0.7s0.1,0.5,0.3,0.7
			c0.2,0.2,0.5,0.3,0.9,0.3s0.7-0.1,1-0.3c0.3-0.2,0.5-0.5,0.7-0.9l0.5,1.3c-0.2,0.7-0.5,1.2-1.1,1.5
			C728.9,144,728.2,144.2,727.4,144.2z M730.3,144v-1.8l-0.2-0.5v-3.3c0-0.5-0.2-1-0.5-1.3c-0.3-0.3-0.9-0.4-1.6-0.4
			c-0.5,0-0.9,0.1-1.4,0.2c-0.5,0.2-0.9,0.4-1.2,0.6l-1.1-2.3c0.6-0.4,1.2-0.6,2-0.8c0.8-0.2,1.5-0.3,2.3-0.3c1.6,0,2.8,0.4,3.7,1.1
			s1.3,1.9,1.3,3.4v5.4L730.3,144L730.3,144z"/>
		<path class="st2" d="M743.9,144.2c-0.8,0-1.4-0.1-2-0.4c-0.5-0.3-1-0.6-1.2-1.1c-0.3-0.5-0.4-1-0.4-1.5c0-0.6,0.2-1.1,0.5-1.6
			c0.3-0.4,0.8-0.8,1.4-1s1.5-0.4,2.5-0.4h2.3v1.8h-1.8c-0.6,0-0.9,0.1-1.2,0.3c-0.3,0.2-0.3,0.4-0.3,0.7s0.1,0.5,0.3,0.7
			c0.2,0.2,0.5,0.3,0.9,0.3s0.7-0.1,1-0.3c0.3-0.2,0.5-0.5,0.7-0.9l0.5,1.3c-0.2,0.7-0.5,1.2-1.1,1.5
			C745.5,144,744.8,144.2,743.9,144.2z M746.8,144v-1.8l-0.2-0.5v-3.3c0-0.5-0.2-1-0.5-1.3c-0.3-0.3-0.9-0.4-1.6-0.4
			c-0.5,0-0.9,0.1-1.4,0.2c-0.5,0.2-0.9,0.4-1.2,0.6l-1.1-2.3c0.6-0.4,1.2-0.6,2-0.8c0.8-0.2,1.5-0.3,2.3-0.3c1.6,0,2.8,0.4,3.7,1.1
			s1.3,1.9,1.3,3.4v5.4L746.8,144L746.8,144z"/>
		<path class="st2" d="M757.1,144.2c-1.1,0-2.1-0.2-2.9-0.6c-0.8-0.4-1.5-1-2-1.8s-0.7-1.6-0.7-2.6s0.2-1.9,0.7-2.6
			c0.5-0.8,1.1-1.4,2-1.8s1.8-0.7,2.9-0.7s2.1,0.2,2.9,0.7s1.4,1.1,1.7,2l-2.6,1.4c-0.2-0.5-0.5-0.8-0.8-1c-0.3-0.2-0.7-0.3-1.1-0.3
			s-0.8,0.1-1.1,0.3c-0.3,0.2-0.6,0.4-0.8,0.8c-0.2,0.3-0.3,0.8-0.3,1.3s0.1,0.9,0.3,1.3c0.2,0.3,0.4,0.6,0.8,0.8
			c0.3,0.2,0.7,0.3,1.1,0.3c0.4,0,0.8-0.1,1.1-0.3c0.3-0.2,0.6-0.5,0.8-1l2.6,1.4c-0.3,0.8-0.9,1.5-1.7,2
			C759.2,143.9,758.2,144.2,757.1,144.2z"/>
		<path class="st2" d="M768,144.2c-1.1,0-2.1-0.2-2.9-0.6c-0.8-0.4-1.5-1-2-1.8s-0.7-1.6-0.7-2.6s0.2-1.9,0.7-2.6
			c0.5-0.8,1.1-1.4,2-1.8c0.8-0.4,1.8-0.7,2.9-0.7s2.1,0.2,2.9,0.7s1.4,1.1,1.7,2l-2.6,1.4c-0.2-0.5-0.5-0.8-0.8-1
			c-0.3-0.2-0.7-0.3-1.1-0.3s-0.8,0.1-1.1,0.3c-0.3,0.2-0.6,0.4-0.8,0.8c-0.2,0.3-0.3,0.8-0.3,1.3s0.1,0.9,0.3,1.3
			c0.2,0.3,0.4,0.6,0.8,0.8c0.3,0.2,0.7,0.3,1.1,0.3c0.4,0,0.8-0.1,1.1-0.3c0.3-0.2,0.6-0.5,0.8-1l2.6,1.4c-0.3,0.8-0.9,1.5-1.7,2
			C770.1,144.3,769.1,144.2,768,144.2z"/>
		<path class="st2" d="M779,144.2c-1.2,0-2.2-0.2-3-0.7c-0.9-0.4-1.5-1-2-1.8s-0.7-1.6-0.7-2.6s0.2-1.9,0.7-2.6
			c0.5-0.8,1.1-1.4,1.9-1.8c0.8-0.4,1.7-0.6,2.8-0.6c1,0,1.8,0.2,2.6,0.6c0.8,0.4,1.4,1,1.9,1.7c0.5,0.8,0.7,1.7,0.7,2.7
			c0,0.1,0,0.3,0,0.4c0,0.2,0,0.3,0,0.4h-7.7v-1.8h5.9l-1.3,0.5c0-0.4-0.1-0.8-0.2-1.1c-0.2-0.3-0.4-0.6-0.7-0.8
			c-0.3-0.2-0.7-0.3-1.1-0.3s-0.8,0.1-1.1,0.3c-0.3,0.2-0.5,0.4-0.7,0.8c-0.2,0.3-0.2,0.7-0.2,1.2v0.5c0,0.5,0.1,0.9,0.3,1.2
			c0.2,0.3,0.5,0.6,0.9,0.8s0.8,0.3,1.3,0.3s0.9-0.1,1.2-0.2c0.3-0.1,0.7-0.4,1-0.6l1.8,1.9c-0.5,0.5-1,0.9-1.7,1.2
			C780.7,144,779.9,144.2,779,144.2z"/>
		<path class="st2" d="M789,144.2c-0.8,0-1.6-0.1-2.4-0.3c-0.8-0.2-1.4-0.4-1.9-0.7l1-2.3c0.5,0.3,1,0.5,1.6,0.7s1.2,0.3,1.8,0.3
			s1-0.1,1.2-0.2c0.2-0.1,0.3-0.3,0.3-0.5s-0.1-0.3-0.3-0.4c-0.2-0.1-0.5-0.2-0.8-0.2c-0.3,0-0.7-0.1-1.1-0.1
			c-0.4-0.1-0.8-0.1-1.2-0.3c-0.4-0.1-0.8-0.3-1.1-0.5c-0.3-0.2-0.6-0.5-0.8-0.8c-0.2-0.3-0.3-0.8-0.3-1.4c0-0.6,0.2-1.2,0.5-1.7
			c0.4-0.5,0.9-0.9,1.6-1.2c0.7-0.3,1.6-0.4,2.6-0.4c0.7,0,1.4,0.1,2.1,0.2c0.7,0.1,1.3,0.4,1.8,0.6l-1,2.3c-0.5-0.3-1-0.5-1.4-0.6
			c-0.5-0.1-0.9-0.1-1.3-0.1c-0.6,0-1,0.1-1.2,0.2c-0.2,0.1-0.4,0.3-0.4,0.5s0.1,0.3,0.3,0.4c0.2,0.1,0.5,0.2,0.8,0.2
			c0.3,0.1,0.7,0.1,1.1,0.2c0.4,0.1,0.8,0.1,1.2,0.2c0.4,0.1,0.8,0.3,1.1,0.5c0.3,0.2,0.6,0.5,0.8,0.8c0.2,0.3,0.3,0.8,0.3,1.4
			c0,0.6-0.2,1.1-0.5,1.6c-0.4,0.5-0.9,0.9-1.6,1.2C790.9,144,790,144.2,789,144.2z"/>
		<path class="st2" d="M797,133.2c-0.6,0-1.1-0.2-1.5-0.5s-0.6-0.8-0.6-1.3s0.2-0.9,0.6-1.3c0.4-0.3,0.9-0.5,1.5-0.5
			s1.1,0.2,1.5,0.5s0.6,0.7,0.6,1.2s-0.2,1-0.6,1.4C798.1,133.1,797.6,133.2,797,133.2z M795.3,144v-9.8h3.4v9.8H795.3z"/>
		<path class="st2" d="M800.9,144v-13.3h3.4v5.2l-0.2,3.2v3.2v1.7L800.9,144L800.9,144z M807,144.2c-0.9,0-1.6-0.2-2.2-0.5
			c-0.6-0.3-1-0.9-1.3-1.7c-0.3-0.7-0.4-1.7-0.4-2.8s0.2-2.1,0.5-2.8c0.3-0.7,0.8-1.3,1.3-1.7c0.6-0.4,1.3-0.5,2.1-0.5
			c0.9,0,1.7,0.2,2.4,0.6c0.7,0.4,1.3,1,1.7,1.7c0.4,0.8,0.6,1.6,0.6,2.7c0,1-0.2,1.9-0.6,2.7s-1,1.3-1.7,1.7
			C808.7,144,807.9,144.2,807,144.2z M806.3,141.5c0.4,0,0.7-0.1,1-0.3c0.3-0.2,0.6-0.4,0.7-0.8c0.2-0.4,0.3-0.8,0.3-1.3
			s-0.1-0.9-0.3-1.3c-0.2-0.3-0.4-0.6-0.7-0.8c-0.3-0.2-0.7-0.3-1-0.3c-0.4,0-0.7,0.1-1,0.3c-0.3,0.2-0.6,0.4-0.7,0.8
			c-0.2,0.3-0.3,0.8-0.3,1.3s0.1,0.9,0.3,1.3c0.2,0.4,0.4,0.6,0.7,0.8C805.6,141.4,805.9,141.5,806.3,141.5z"/>
		<path class="st2" d="M813.4,144v-13.3h3.4v13.4L813.4,144L813.4,144z"/>
		<path class="st2" d="M824.2,144.2c-1.2,0-2.2-0.2-3-0.7c-0.9-0.4-1.5-1-2-1.8s-0.7-1.6-0.7-2.6s0.2-1.9,0.7-2.6
			c0.5-0.8,1.1-1.4,1.9-1.8c0.8-0.4,1.7-0.6,2.8-0.6c1,0,1.8,0.2,2.6,0.6c0.8,0.4,1.4,1,1.9,1.7c0.5,0.8,0.7,1.7,0.7,2.7
			c0,0.1,0,0.3,0,0.4c0,0.2,0,0.3,0,0.4h-7.7v-1.8h5.9l-1.3,0.5c0-0.4-0.1-0.8-0.2-1.1c-0.2-0.3-0.4-0.6-0.7-0.8
			c-0.3-0.2-0.7-0.3-1.1-0.3c-0.4,0-0.8,0.1-1.1,0.3c-0.3,0.2-0.5,0.4-0.7,0.8c-0.2,0.3-0.2,0.7-0.2,1.2v0.5c0,0.5,0.1,0.9,0.3,1.2
			c0.2,0.3,0.5,0.6,0.9,0.8s0.8,0.3,1.3,0.3s0.9-0.1,1.2-0.2c0.3-0.1,0.7-0.4,1-0.6l1.8,1.9c-0.5,0.5-1,0.9-1.7,1.2
			C825.9,144,825.1,144.2,824.2,144.2z"/>
		<path class="st2" d="M848.5,134.1c0.8,0,1.4,0.2,2,0.5s1.1,0.8,1.4,1.4s0.5,1.5,0.5,2.5v5.6H849v-5c0-0.7-0.1-1.2-0.4-1.5
			c-0.3-0.3-0.6-0.5-1.1-0.5c-0.3,0-0.6,0.1-0.9,0.2c-0.3,0.2-0.5,0.4-0.6,0.7s-0.2,0.7-0.2,1.3v4.8h-3.4v-5c0-0.7-0.1-1.2-0.4-1.5
			s-0.6-0.5-1.1-0.5c-0.3,0-0.6,0.1-0.9,0.2c-0.3,0.2-0.5,0.4-0.6,0.7c-0.2,0.3-0.2,0.7-0.2,1.3v4.8h-3.4v-9.8h3.3v2.7l-0.6-0.8
			c0.3-0.7,0.8-1.2,1.5-1.6c0.6-0.4,1.3-0.5,2.1-0.5c0.9,0,1.7,0.2,2.3,0.7c0.7,0.5,1.1,1.2,1.3,2.1l-1.1-0.3
			c0.3-0.8,0.9-1.4,1.6-1.9C846.8,134.3,847.6,134.1,848.5,134.1z"/>
		<path class="st2" d="M857.7,144.2c-0.8,0-1.4-0.1-2-0.4c-0.5-0.3-1-0.6-1.2-1.1c-0.3-0.5-0.4-1-0.4-1.5c0-0.6,0.2-1.1,0.5-1.6
			c0.3-0.4,0.8-0.8,1.4-1s1.5-0.4,2.5-0.4h2.3v1.8H859c-0.6,0-0.9,0.1-1.2,0.3c-0.3,0.2-0.3,0.4-0.3,0.7s0.1,0.5,0.3,0.7
			c0.2,0.2,0.5,0.3,0.9,0.3s0.7-0.1,1-0.3c0.3-0.2,0.5-0.5,0.7-0.9l0.5,1.3c-0.2,0.7-0.5,1.2-1.1,1.5
			C859.3,144,858.6,144.2,857.7,144.2z M860.6,144v-1.8l-0.2-0.5v-3.3c0-0.5-0.2-1-0.5-1.3c-0.3-0.3-0.9-0.4-1.6-0.4
			c-0.5,0-0.9,0.1-1.4,0.2c-0.5,0.2-0.9,0.4-1.2,0.6l-1.1-2.3c0.6-0.4,1.2-0.6,2-0.8c0.8-0.2,1.5-0.3,2.3-0.3c1.6,0,2.8,0.4,3.7,1.1
			s1.3,1.9,1.3,3.4v5.4L860.6,144L860.6,144z"/>
		<path class="st2" d="M872.3,134.1c0.8,0,1.4,0.2,2.1,0.5s1.1,0.8,1.4,1.4c0.4,0.6,0.5,1.5,0.5,2.5v5.6h-3.4v-5
			c0-0.7-0.1-1.2-0.4-1.5s-0.7-0.5-1.1-0.5c-0.4,0-0.7,0.1-1,0.2c-0.3,0.2-0.5,0.4-0.7,0.7c-0.2,0.3-0.3,0.8-0.3,1.3v4.7H866v-9.8
			h3.3v2.8l-0.6-0.8c0.4-0.7,0.9-1.2,1.5-1.6C870.8,134.3,871.5,134.1,872.3,134.1z"/>
		<path class="st2" d="M883.6,144.2c-1.2,0-2.2-0.2-3-0.7c-0.9-0.4-1.5-1-2-1.8s-0.7-1.6-0.7-2.6s0.2-1.9,0.7-2.6
			c0.5-0.8,1.1-1.4,1.9-1.8c0.8-0.4,1.7-0.6,2.8-0.6c1,0,1.8,0.2,2.6,0.6c0.8,0.4,1.4,1,1.9,1.7c0.5,0.8,0.7,1.7,0.7,2.7
			c0,0.1,0,0.3,0,0.4c0,0.2,0,0.3,0,0.4h-7.7v-1.8h5.9l-1.4,0.6c0-0.4-0.1-0.8-0.2-1.1c-0.2-0.3-0.4-0.6-0.7-0.8
			c-0.3-0.2-0.7-0.3-1.1-0.3c-0.4,0-0.8,0.1-1.1,0.3c-0.3,0.2-0.5,0.4-0.7,0.8c-0.2,0.3-0.2,0.7-0.2,1.2v0.5c0,0.5,0.1,0.9,0.3,1.2
			c0.2,0.3,0.5,0.6,0.9,0.8s0.8,0.3,1.3,0.3s0.9-0.1,1.2-0.2c0.3-0.1,0.7-0.4,1-0.6l1.8,1.9c-0.5,0.5-1,0.9-1.7,1.2
			C885.3,144,884.5,144.2,883.6,144.2z"/>
		<path class="st2" d="M890,144v-9.8h3.3v2.9l-0.5-0.8c0.3-0.7,0.8-1.3,1.4-1.7c0.6-0.4,1.4-0.6,2.3-0.6v3.1c-0.2,0-0.3,0-0.4,0
			c-0.1,0-0.2,0-0.4,0c-0.7,0-1.3,0.2-1.7,0.6c-0.4,0.4-0.6,1-0.6,1.8v4.5H890z"/>
		<path class="st2" d="M901.1,144.2c-0.8,0-1.4-0.1-2-0.4c-0.5-0.3-1-0.6-1.2-1.1c-0.2-0.5-0.4-1-0.4-1.5c0-0.6,0.2-1.1,0.5-1.6
			c0.3-0.4,0.8-0.8,1.4-1c0.6-0.2,1.5-0.4,2.5-0.4h2.3v1.8h-1.9c-0.6,0-0.9,0.1-1.2,0.3c-0.2,0.2-0.3,0.4-0.3,0.7s0.1,0.5,0.3,0.7
			c0.2,0.2,0.5,0.3,0.9,0.3s0.7-0.1,1-0.3c0.3-0.2,0.5-0.5,0.7-0.9l0.5,1.3c-0.2,0.7-0.5,1.2-1.1,1.5
			C902.6,144,901.9,144.2,901.1,144.2z M904,144v-1.8l-0.2-0.5v-3.3c0-0.5-0.2-1-0.5-1.3c-0.3-0.3-0.9-0.4-1.6-0.4
			c-0.5,0-0.9,0.1-1.4,0.2c-0.5,0.2-0.9,0.4-1.2,0.6l-1.1-2.3c0.6-0.4,1.2-0.6,2-0.8c0.8-0.2,1.5-0.3,2.3-0.3c1.6,0,2.8,0.4,3.7,1.1
			s1.3,1.9,1.3,3.4v5.4L904,144L904,144z"/>
		<path class="st2" d="M918.8,144.2c-0.9,0-1.7-0.2-2.4-0.6c-0.7-0.4-1.3-1-1.7-1.7s-0.6-1.6-0.6-2.7c0-1,0.2-1.9,0.6-2.7
			c0.4-0.8,1-1.3,1.7-1.7c0.7-0.4,1.5-0.6,2.4-0.6c0.8,0,1.5,0.2,2.1,0.5c0.6,0.4,1,0.9,1.3,1.7c0.3,0.7,0.5,1.7,0.5,2.8
			s-0.1,2.1-0.4,2.8c-0.3,0.7-0.7,1.3-1.3,1.7C920.4,144,919.7,144.2,918.8,144.2z M919.5,141.5c0.4,0,0.7-0.1,1-0.3
			c0.3-0.2,0.5-0.4,0.7-0.8c0.2-0.4,0.3-0.8,0.3-1.3s-0.1-0.9-0.3-1.3c-0.2-0.3-0.4-0.6-0.7-0.8c-0.3-0.2-0.7-0.3-1-0.3
			c-0.4,0-0.7,0.1-1.1,0.3c-0.3,0.2-0.5,0.4-0.7,0.8c-0.2,0.3-0.3,0.8-0.3,1.3s0.1,0.9,0.3,1.3c0.2,0.4,0.4,0.6,0.7,0.8
			C918.8,141.4,919.1,141.5,919.5,141.5z M921.7,144v-1.7v-3.2l-0.2-3.2v-5.2h3.4v13.4L921.7,144L921.7,144z"/>
		<path class="st2" d="M932.2,144.2c-1.2,0-2.2-0.2-3-0.7c-0.9-0.4-1.5-1-2-1.8s-0.7-1.6-0.7-2.6s0.2-1.9,0.7-2.6
			c0.5-0.8,1.1-1.4,1.9-1.8c0.8-0.4,1.7-0.6,2.8-0.6c1,0,1.8,0.2,2.6,0.6c0.8,0.4,1.4,1,1.9,1.7c0.5,0.8,0.7,1.7,0.7,2.7
			c0,0.1,0,0.3,0,0.4c0,0.2,0,0.3,0,0.4h-7.8v-1.8h5.9l-1.3,0.5c0-0.4-0.1-0.8-0.2-1.1c-0.2-0.3-0.4-0.6-0.7-0.8
			c-0.3-0.2-0.7-0.3-1.1-0.3s-0.8,0.1-1.1,0.3c-0.3,0.2-0.5,0.4-0.7,0.8c-0.2,0.3-0.2,0.7-0.2,1.2v0.5c0,0.5,0.1,0.9,0.3,1.2
			c0.2,0.3,0.5,0.6,0.9,0.8s0.8,0.3,1.3,0.3s0.9-0.1,1.2-0.2c0.3-0.1,0.7-0.4,1-0.6l1.8,1.9c-0.5,0.5-1,0.9-1.7,1.2
			C934,144,933.2,144.2,932.2,144.2z"/>
		<path class="st2" d="M942.9,137.2v-2.6h7.1v2.6H942.9z M948.3,144.2c-1.2,0-2.2-0.3-2.9-0.9c-0.7-0.6-1-1.6-1-2.8v-8.4h3.4v8.3
			c0,0.4,0.1,0.7,0.3,0.8c0.2,0.2,0.4,0.3,0.7,0.3c0.4,0,0.7-0.1,1-0.3l0.9,2.4c-0.3,0.2-0.7,0.4-1.1,0.4
			C949.2,144.1,948.7,144.2,948.3,144.2z"/>
		<path class="st2" d="M957.1,144.2c-1.2,0-2.2-0.2-3-0.7c-0.9-0.4-1.5-1-2-1.8s-0.7-1.6-0.7-2.6s0.2-1.9,0.7-2.6
			c0.5-0.8,1.1-1.4,1.9-1.8c0.8-0.4,1.7-0.6,2.8-0.6c1,0,1.8,0.2,2.6,0.6c0.8,0.4,1.4,1,1.9,1.7c0.5,0.8,0.7,1.7,0.7,2.7
			c0,0.1,0,0.3,0,0.4c0,0.2,0,0.3,0,0.4h-7.7v-1.8h5.9l-1.3,0.5c0-0.4-0.1-0.8-0.2-1.1c-0.2-0.3-0.4-0.6-0.7-0.8
			c-0.3-0.2-0.7-0.3-1.1-0.3s-0.8,0.1-1.1,0.3c-0.3,0.2-0.5,0.4-0.7,0.8c-0.2,0.3-0.2,0.7-0.2,1.2v0.5c0,0.5,0.1,0.9,0.3,1.2
			c0.2,0.3,0.5,0.6,0.9,0.8s0.8,0.3,1.3,0.3s0.9-0.1,1.2-0.2c0.3-0.1,0.7-0.4,1-0.6l1.8,1.9c-0.5,0.5-1,0.9-1.7,1.2
			C958.8,144,958,144.2,957.1,144.2z"/>
		<path class="st2" d="M969.9,134.1c0.8,0,1.4,0.2,2.1,0.5s1.1,0.8,1.4,1.4c0.4,0.6,0.5,1.5,0.5,2.5v5.6h-3.4v-5
			c0-0.7-0.1-1.2-0.4-1.5s-0.7-0.5-1.1-0.5c-0.4,0-0.7,0.1-1,0.2c-0.3,0.2-0.5,0.4-0.7,0.7c-0.2,0.3-0.3,0.8-0.3,1.3v4.7h-3.4v-9.8
			h3.3v2.8l-0.6-0.8c0.4-0.7,0.9-1.2,1.5-1.6C968.3,134.3,969,134.1,969.9,134.1z"/>
		<path class="st2" d="M981.2,144.2c-1.2,0-2.2-0.2-3-0.7c-0.9-0.4-1.5-1-2-1.8s-0.7-1.6-0.7-2.6s0.2-1.9,0.7-2.6
			c0.5-0.8,1.1-1.4,1.9-1.8c0.8-0.4,1.7-0.6,2.8-0.6c1,0,1.8,0.2,2.6,0.6c0.8,0.4,1.4,1,1.9,1.7c0.5,0.8,0.7,1.7,0.7,2.7
			c0,0.1,0,0.3,0,0.4c0,0.2,0,0.3,0,0.4h-7.7v-1.8h5.9l-1.3,0.5c0-0.4-0.1-0.8-0.2-1.1c-0.2-0.3-0.4-0.6-0.7-0.8
			c-0.3-0.2-0.7-0.3-1.1-0.3c-0.4,0-0.8,0.1-1.1,0.3c-0.3,0.2-0.5,0.4-0.7,0.8c-0.2,0.3-0.2,0.7-0.2,1.2v0.5c0,0.5,0.1,0.9,0.3,1.2
			c0.2,0.3,0.5,0.6,0.9,0.8s0.8,0.3,1.3,0.3s0.9-0.1,1.2-0.2c0.3-0.1,0.7-0.4,1-0.6l1.8,1.9c-0.5,0.5-1,0.9-1.7,1.2
			C982.9,144,982.1,144.2,981.2,144.2z"/>
		<path class="st2" d="M987.6,144v-9.8h3.3v2.9l-0.5-0.8c0.3-0.7,0.8-1.3,1.4-1.7c0.6-0.4,1.4-0.6,2.3-0.6v3.1c-0.2,0-0.3,0-0.4,0
			c-0.1,0-0.2,0-0.4,0c-0.7,0-1.3,0.2-1.7,0.6c-0.4,0.4-0.6,1-0.6,1.8v4.5H987.6z"/>
		<path class="st2" d="M999.8,137.2v-2.6h7.1v2.6H999.8z M1005.2,144.2c-1.2,0-2.2-0.3-2.9-0.9c-0.7-0.6-1-1.6-1-2.8v-8.4h3.4v8.3
			c0,0.4,0.1,0.7,0.3,0.8c0.2,0.2,0.4,0.3,0.7,0.3c0.4,0,0.7-0.1,1-0.3l0.9,2.4c-0.3,0.2-0.7,0.4-1.1,0.4
			C1006.1,144.1,1005.6,144.2,1005.2,144.2z"/>
		<path class="st2" d="M1013,144.2c-0.8,0-1.5-0.2-2.1-0.5s-1.1-0.8-1.5-1.5s-0.5-1.5-0.5-2.5v-5.5h3.4v4.9c0,0.8,0.1,1.3,0.4,1.6
			s0.7,0.5,1.2,0.5c0.3,0,0.6-0.1,0.9-0.2c0.3-0.2,0.5-0.4,0.7-0.7c0.2-0.3,0.2-0.8,0.2-1.3v-4.7h3.4v9.8h-3.2v-2.8l0.6,0.8
			c-0.3,0.7-0.8,1.3-1.5,1.6C1014.4,144,1013.7,144.2,1013,144.2z"/>
		<path class="st2" d="M1026.5,147.5v-13.3h3.3v1.7v3.2l0.2,3.2v5.1h-3.5V147.5z M1032.7,144.2c-0.8,0-1.5-0.2-2.1-0.5
			c-0.6-0.4-1-0.9-1.3-1.7c-0.3-0.7-0.5-1.7-0.5-2.8c0-1.2,0.1-2.1,0.4-2.9c0.3-0.7,0.7-1.3,1.3-1.7s1.3-0.5,2.2-0.5
			s1.7,0.2,2.4,0.6c0.7,0.4,1.3,1,1.7,1.8s0.6,1.6,0.6,2.7c0,1-0.2,1.9-0.6,2.7c-0.4,0.8-1,1.3-1.7,1.7S1033.6,144.2,1032.7,144.2z
			 M1032,141.5c0.4,0,0.7-0.1,1-0.3c0.3-0.2,0.6-0.4,0.7-0.8c0.2-0.3,0.3-0.8,0.3-1.2c0-0.5-0.1-0.9-0.3-1.3
			c-0.2-0.3-0.4-0.6-0.7-0.8c-0.3-0.2-0.7-0.3-1-0.3c-0.4,0-0.7,0.1-1,0.3c-0.3,0.2-0.6,0.4-0.7,0.8c-0.2,0.3-0.3,0.8-0.3,1.3
			s0.1,0.9,0.3,1.2c0.2,0.3,0.4,0.6,0.7,0.8C1031.2,141.4,1031.6,141.5,1032,141.5z"/>
		<path class="st2" d="M1039.1,144v-9.8h3.3v2.9l-0.5-0.8c0.3-0.7,0.8-1.3,1.4-1.7c0.6-0.4,1.4-0.6,2.3-0.6v3.1c-0.2,0-0.3,0-0.4,0
			c-0.1,0-0.2,0-0.4,0c-0.7,0-1.3,0.2-1.7,0.6s-0.6,1-0.6,1.8v4.5H1039.1z"/>
		<path class="st2" d="M1048.7,133.2c-0.6,0-1.1-0.2-1.5-0.5s-0.6-0.8-0.6-1.3s0.2-0.9,0.6-1.3c0.4-0.3,0.9-0.5,1.5-0.5
			s1.1,0.2,1.5,0.5s0.6,0.7,0.6,1.2s-0.2,1-0.6,1.4C1049.8,133.1,1049.4,133.2,1048.7,133.2z M1047,144v-9.8h3.4v9.8H1047z"/>
		<path class="st2" d="M1065.4,134.1c0.8,0,1.4,0.2,2,0.5s1.1,0.8,1.4,1.4c0.3,0.6,0.5,1.5,0.5,2.5v5.6h-3.4v-5
			c0-0.7-0.1-1.2-0.4-1.5s-0.6-0.5-1.1-0.5c-0.3,0-0.6,0.1-0.9,0.2c-0.3,0.2-0.5,0.4-0.6,0.7s-0.2,0.7-0.2,1.3v4.8h-3.4v-5
			c0-0.7-0.1-1.2-0.4-1.5s-0.6-0.5-1.1-0.5c-0.3,0-0.6,0.1-0.9,0.2c-0.3,0.2-0.5,0.4-0.6,0.7c-0.2,0.3-0.2,0.7-0.2,1.3v4.8h-3.4
			v-9.8h3.3v2.7l-0.6-0.8c0.3-0.7,0.8-1.2,1.5-1.6c0.7-0.4,1.3-0.5,2.1-0.5c0.9,0,1.7,0.2,2.3,0.7c0.7,0.5,1.1,1.2,1.3,2.1l-1.1-0.3
			c0.3-0.8,0.9-1.4,1.6-1.9S1064.5,134.1,1065.4,134.1z"/>
		<path class="st2" d="M1076.6,144.2c-1.2,0-2.2-0.2-3-0.7c-0.9-0.4-1.5-1-2-1.8s-0.7-1.6-0.7-2.6s0.2-1.9,0.7-2.6
			c0.5-0.8,1.1-1.4,1.9-1.8c0.8-0.4,1.7-0.6,2.8-0.6c1,0,1.8,0.2,2.6,0.6c0.8,0.4,1.4,1,1.9,1.7c0.5,0.8,0.7,1.7,0.7,2.7
			c0,0.1,0,0.3,0,0.4c0,0.2,0,0.3,0,0.4h-7.7v-1.8h5.9l-1.3,0.5c0-0.4-0.1-0.8-0.2-1.1c-0.2-0.3-0.4-0.6-0.7-0.8
			c-0.3-0.2-0.7-0.3-1.1-0.3s-0.8,0.1-1.1,0.3c-0.3,0.2-0.5,0.4-0.7,0.8c-0.2,0.3-0.2,0.7-0.2,1.2v0.5c0,0.5,0.1,0.9,0.3,1.2
			s0.5,0.6,0.9,0.8s0.8,0.3,1.3,0.3s0.9-0.1,1.2-0.2c0.3-0.1,0.7-0.4,1-0.6l1.8,1.9c-0.5,0.5-1,0.9-1.7,1.2
			C1078.3,144,1077.5,144.2,1076.6,144.2z"/>
		<path class="st2" d="M1083,144v-9.8h3.3v2.9l-0.5-0.8c0.3-0.7,0.8-1.3,1.4-1.7s1.4-0.6,2.3-0.6v3.1c-0.2,0-0.3,0-0.4,0
			s-0.2,0-0.4,0c-0.7,0-1.3,0.2-1.7,0.6s-0.6,1-0.6,1.8v4.5H1083z"/>
		<path class="st2" d="M697.6,169.1v-13.3h3.3v1.7v3.2l0.2,3.2v5.1h-3.5V169.1z M703.8,165.8c-0.8,0-1.5-0.2-2.1-0.5
			c-0.6-0.4-1-0.9-1.3-1.7c-0.3-0.7-0.5-1.7-0.5-2.8c0-1.2,0.1-2.1,0.4-2.9c0.3-0.7,0.7-1.3,1.3-1.7s1.3-0.5,2.2-0.5
			s1.7,0.2,2.4,0.6c0.7,0.4,1.3,1,1.7,1.8s0.6,1.6,0.6,2.7c0,1-0.2,1.9-0.6,2.7c-0.4,0.8-1,1.3-1.7,1.7
			C705.5,165.6,704.7,165.8,703.8,165.8z M703.1,163.1c0.4,0,0.7-0.1,1-0.3c0.3-0.2,0.6-0.4,0.7-0.8c0.2-0.3,0.3-0.8,0.3-1.2
			c0-0.5-0.1-0.9-0.3-1.3c-0.2-0.3-0.4-0.6-0.7-0.8c-0.3-0.2-0.7-0.3-1-0.3c-0.4,0-0.7,0.1-1,0.3c-0.3,0.2-0.6,0.4-0.7,0.8
			c-0.2,0.3-0.3,0.8-0.3,1.3s0.1,0.9,0.3,1.2c0.2,0.3,0.4,0.6,0.7,0.8C702.3,163,702.7,163.1,703.1,163.1z"/>
		<path class="st2" d="M713.2,165.8c-0.8,0-1.4-0.1-2-0.4c-0.5-0.3-1-0.6-1.2-1.1c-0.2-0.5-0.4-1-0.4-1.5c0-0.6,0.2-1.1,0.5-1.6
			c0.3-0.4,0.8-0.8,1.4-1s1.5-0.4,2.5-0.4h2.3v1.8h-1.8c-0.6,0-0.9,0.1-1.2,0.3c-0.2,0.2-0.3,0.4-0.3,0.7s0.1,0.5,0.3,0.7
			c0.2,0.2,0.5,0.3,0.9,0.3s0.7-0.1,1-0.3c0.3-0.2,0.5-0.5,0.7-0.9l0.5,1.3c-0.2,0.7-0.5,1.2-1.1,1.5
			C714.8,165.6,714.1,165.8,713.2,165.8z M716.1,165.6v-1.8l-0.2-0.5V160c0-0.5-0.2-1-0.5-1.3c-0.3-0.3-0.9-0.4-1.6-0.4
			c-0.5,0-0.9,0.1-1.4,0.2c-0.5,0.2-0.9,0.4-1.2,0.6l-1.1-2.3c0.6-0.4,1.2-0.6,2-0.8c0.8-0.2,1.5-0.3,2.3-0.3c1.6,0,2.8,0.4,3.7,1.1
			s1.3,1.9,1.3,3.4v5.4L716.1,165.6L716.1,165.6z M712.9,154.7l2.4-2.7h3.4l-3.4,2.7H712.9z"/>
		<path class="st2" d="M725.6,165.1c-0.9,0-1.6-0.2-2.4-0.6c-0.7-0.4-1.3-0.9-1.7-1.6c-0.4-0.7-0.7-1.5-0.7-2.5s0.2-1.8,0.7-2.5
			c0.4-0.7,1-1.3,1.7-1.6c0.7-0.4,1.5-0.6,2.4-0.6c0.8,0,1.6,0.2,2.1,0.5c0.6,0.3,1,0.9,1.3,1.6c0.3,0.7,0.5,1.6,0.5,2.7
			c0,1.1-0.2,2-0.5,2.7c-0.3,0.7-0.8,1.2-1.3,1.6S726.4,165.1,725.6,165.1z M726.2,169.3c-0.9,0-1.8-0.1-2.7-0.3s-1.6-0.5-2.2-1
			l1.2-2.4c0.4,0.3,0.9,0.6,1.5,0.7c0.6,0.2,1.2,0.3,1.8,0.3c0.9,0,1.6-0.2,2-0.6c0.4-0.4,0.6-1,0.6-1.8v-1.1l0.2-2.8v-2.6v-1.8h3.2
			v8c0,1.8-0.5,3.2-1.5,4.1C729.4,168.8,728,169.3,726.2,169.3z M726.4,162.4c0.4,0,0.8-0.1,1.1-0.3c0.3-0.2,0.6-0.4,0.7-0.7
			c0.2-0.3,0.3-0.6,0.3-1s-0.1-0.7-0.3-1c-0.2-0.3-0.4-0.5-0.7-0.7c-0.3-0.2-0.7-0.2-1.1-0.2c-0.4,0-0.8,0.1-1.1,0.2
			c-0.3,0.1-0.6,0.4-0.8,0.7c-0.2,0.3-0.3,0.6-0.3,1s0.1,0.7,0.3,1c0.2,0.3,0.4,0.5,0.8,0.7C725.7,162.3,726,162.4,726.4,162.4z"/>
		<path class="st2" d="M735.8,154.8c-0.6,0-1.1-0.2-1.5-0.5s-0.6-0.8-0.6-1.3s0.2-0.9,0.6-1.3c0.4-0.3,0.9-0.5,1.5-0.5
			s1.1,0.2,1.5,0.5s0.6,0.7,0.6,1.2s-0.2,1-0.6,1.4C736.9,154.7,736.5,154.8,735.8,154.8z M734.1,165.6v-9.8h3.4v9.8H734.1z"/>
		<path class="st2" d="M746.1,155.7c0.8,0,1.4,0.2,2.1,0.5s1.1,0.8,1.4,1.4c0.4,0.6,0.5,1.5,0.5,2.5v5.6h-3.4v-5
			c0-0.7-0.1-1.2-0.4-1.5c-0.3-0.3-0.7-0.5-1.1-0.5s-0.7,0.1-1,0.2c-0.3,0.2-0.5,0.4-0.7,0.7c-0.2,0.3-0.3,0.8-0.3,1.3v4.7h-3.4
			v-9.8h3.3v2.8l-0.6-0.8c0.4-0.7,0.9-1.2,1.5-1.6C744.6,155.9,745.3,155.7,746.1,155.7z"/>
		<path class="st2" d="M755.4,165.8c-0.8,0-1.4-0.1-2-0.4c-0.5-0.3-1-0.6-1.2-1.1c-0.2-0.5-0.4-1-0.4-1.5c0-0.6,0.2-1.1,0.5-1.6
			c0.3-0.4,0.8-0.8,1.4-1s1.5-0.4,2.5-0.4h2.3v1.8h-1.8c-0.6,0-0.9,0.1-1.2,0.3c-0.2,0.2-0.3,0.4-0.3,0.7s0.1,0.5,0.3,0.7
			c0.2,0.2,0.5,0.3,0.9,0.3s0.7-0.1,1-0.3c0.3-0.2,0.5-0.5,0.7-0.9l0.5,1.3c-0.2,0.7-0.5,1.2-1.1,1.5
			C756.9,165.6,756.2,165.8,755.4,165.8z M758.3,165.6v-1.8l-0.2-0.5V160c0-0.5-0.2-1-0.5-1.3c-0.3-0.3-0.9-0.4-1.6-0.4
			c-0.5,0-0.9,0.1-1.4,0.2c-0.5,0.2-0.9,0.4-1.2,0.6l-1.1-2.3c0.6-0.4,1.2-0.6,2-0.8c0.8-0.2,1.5-0.3,2.3-0.3c1.6,0,2.8,0.4,3.7,1.1
			s1.3,1.9,1.3,3.4v5.4L758.3,165.6L758.3,165.6z"/>
		<path class="st2" d="M771.1,165.6l-3.4-9.8h3.2l2.8,8.2h-1.6l2.9-8.2h2.9l2.8,8.2h-1.5l2.8-8.2h3l-3.5,9.8h-3.3l-2.3-6.8h1
			l-2.4,6.8H771.1z"/>
		<path class="st2" d="M791.2,165.8c-1.2,0-2.2-0.2-3-0.7c-0.9-0.4-1.5-1-2-1.8s-0.7-1.6-0.7-2.6s0.2-1.9,0.7-2.6
			c0.5-0.8,1.1-1.4,1.9-1.8c0.8-0.4,1.7-0.6,2.8-0.6c1,0,1.8,0.2,2.6,0.6c0.8,0.4,1.4,1,1.9,1.7c0.5,0.8,0.7,1.7,0.7,2.7
			c0,0.1,0,0.3,0,0.4c0,0.2,0,0.3,0,0.4h-7.7v-1.8h5.9l-1.3,0.5c0-0.4-0.1-0.8-0.2-1.1c-0.2-0.3-0.4-0.6-0.7-0.8
			c-0.3-0.2-0.7-0.3-1.1-0.3c-0.4,0-0.8,0.1-1.1,0.3c-0.3,0.2-0.5,0.4-0.7,0.8c-0.2,0.3-0.2,0.7-0.2,1.2v0.5c0,0.5,0.1,0.9,0.3,1.2
			c0.2,0.3,0.5,0.6,0.9,0.8s0.8,0.3,1.3,0.3s0.9-0.1,1.2-0.2c0.3-0.1,0.7-0.4,1-0.6l1.8,1.9c-0.5,0.5-1,0.9-1.7,1.2
			C792.9,165.6,792.1,165.8,791.2,165.8z"/>
		<path class="st2" d="M797.6,165.6v-13.4h3.4v5.2l-0.2,3.2v3.2v1.7h-3.2V165.6z M803.7,165.8c-0.9,0-1.6-0.2-2.2-0.5
			c-0.6-0.3-1-0.9-1.3-1.7c-0.3-0.7-0.4-1.7-0.4-2.8s0.2-2.1,0.5-2.8c0.3-0.7,0.8-1.3,1.3-1.7c0.6-0.4,1.3-0.5,2.1-0.5
			c0.9,0,1.7,0.2,2.4,0.6c0.7,0.4,1.3,1,1.7,1.7c0.4,0.8,0.6,1.6,0.6,2.7c0,1-0.2,1.9-0.6,2.7c-0.4,0.8-1,1.3-1.7,1.7
			C805.4,165.6,804.6,165.8,803.7,165.8z M803,163.1c0.4,0,0.7-0.1,1-0.3c0.3-0.2,0.6-0.4,0.7-0.8c0.2-0.4,0.3-0.8,0.3-1.3
			s-0.1-0.9-0.3-1.3c-0.2-0.3-0.4-0.6-0.7-0.8c-0.3-0.2-0.7-0.3-1-0.3c-0.4,0-0.7,0.1-1,0.3c-0.3,0.2-0.6,0.4-0.7,0.8
			c-0.2,0.3-0.3,0.8-0.3,1.3s0.1,0.9,0.3,1.3c0.2,0.4,0.4,0.6,0.7,0.8C802.3,163,802.6,163.1,803,163.1z"/>
	</g>
</g>
</svg>
